<svg width="911" height="654" viewBox="0 0 911 654" fill="none" xmlns="http://www.w3.org/2000/svg">
<g clip-path="url(#clip0)">
<path d="M431.182 646.476H0V648.351H431.182V646.476Z" fill="#3F3D56"/>
<path d="M109.607 639.942H121.866L127.699 592.654H109.605L109.607 639.942Z" fill="#FFB8B8"/>
<path d="M145.511 651.325L106.98 651.326L106.979 636.44L130.623 636.438C134.572 636.438 138.358 638.007 141.15 640.798C143.942 643.59 145.511 647.376 145.511 651.325L145.511 651.325Z" fill="#2F2E41"/>
<path d="M44.379 637.585L56.532 639.205L68.564 593.103L50.629 590.712L44.379 637.585Z" fill="#FFB8B8"/>
<path d="M78.4635 653.614L40.2707 648.522L42.2382 633.766L65.6747 636.891C69.5883 637.412 73.1343 639.467 75.5327 642.604C77.9311 645.74 78.9853 649.701 78.4635 653.614Z" fill="#2F2E41"/>
<path d="M61.796 444.64L130.796 447.64L127.796 622.64L109.796 620.64L95.796 501.64L62.796 628.64L44.796 625.64L61.796 444.64Z" fill="#2F2E41"/>
<path d="M107.796 340.639L83.7963 335.737L68.7963 445.639C68.7963 445.639 112.796 474.639 126.796 444.639L107.796 340.639Z" fill="#D8E8F2"/>
<path d="M97.3278 327.732C110.892 327.732 121.889 316.736 121.889 303.171C121.889 289.606 110.892 278.61 97.3278 278.61C83.7631 278.61 72.7668 289.606 72.7668 303.171C72.7668 316.736 83.7631 327.732 97.3278 327.732Z" fill="#FFB8B8"/>
<path d="M83.7963 334.64L48.7963 345.64C48.7963 345.64 65.7963 430.64 37.7963 474.64C37.7963 474.64 72.7963 511.64 87.7963 428.64C87.7963 428.64 99.7963 361.64 83.7963 334.64Z" fill="#2F2E41"/>
<path d="M107.796 340.64L133.796 356.64C133.796 356.64 147.796 473.64 133.796 484.64C119.796 495.64 107.796 340.64 107.796 340.64Z" fill="#2F2E41"/>
<path d="M144.606 501.607C143.54 500.594 142.71 499.36 142.173 497.992C141.636 496.623 141.405 495.153 141.497 493.686C141.59 492.219 142.003 490.79 142.707 489.5C143.411 488.209 144.39 487.089 145.574 486.218L135.004 452.082L152.836 457.262L160.14 488.884C161.472 490.97 161.992 493.472 161.602 495.916C161.212 498.361 159.939 500.577 158.024 502.145C156.11 503.713 153.686 504.525 151.213 504.426C148.74 504.326 146.389 503.323 144.606 501.607Z" fill="#FFB8B8"/>
<path d="M54.782 491.734C53.5955 490.866 52.6137 489.749 51.9059 488.46C51.198 487.172 50.7813 485.744 50.685 484.277C50.5887 482.81 50.8153 481.34 51.3487 479.97C51.8821 478.6 52.7093 477.364 53.7722 476.348L38.9187 443.846L57.2677 446.701L68.5597 477.127C70.1475 479.026 70.9837 481.441 70.9098 483.915C70.8359 486.389 69.8571 488.75 68.1588 490.55C66.4605 492.351 64.1608 493.466 61.6953 493.684C59.2299 493.902 56.77 493.209 54.7819 491.734H54.782Z" fill="#FFB8B8"/>
<path d="M57.796 346.64L48.796 345.64L25.796 420.64L48.796 472.64L66.796 461.64L46.796 418.64L62.796 372.64L57.796 346.64Z" fill="#2F2E41"/>
<path d="M128.796 355.64L133.796 356.64L157.796 473.64L141.796 478.64L122.796 409.64L128.796 355.64Z" fill="#2F2E41"/>
<path d="M80.4505 313.256C80.7816 310.843 81.7339 308.557 83.2141 306.622C84.6944 304.687 86.6518 303.17 88.8947 302.22C93.6224 300.281 98.9554 301.1 104.052 301.471C109.148 301.842 114.822 301.52 118.499 297.972C121.859 294.732 122.614 289.354 120.992 284.977C119.37 280.6 115.696 277.202 111.523 275.111C107.27 273.16 102.713 271.956 98.052 271.551C91.241 270.728 84.2468 270.623 77.6085 272.355C70.9702 274.087 72.6818 277.799 68.7917 283.45C64.9016 289.101 63.7362 296.8 66.7021 302.986C68.6867 307.125 72.243 310.259 75.7061 313.272" fill="#2F2E41"/>
<path d="M629.838 584.306L629.837 582.431C633.565 582.43 637.349 582.353 641.085 582.204L641.16 584.077C637.399 584.228 633.59 584.305 629.838 584.306ZM618.519 584.089C614.772 583.942 610.969 583.718 607.218 583.422L607.365 581.553C611.092 581.848 614.87 582.07 618.592 582.216L618.519 584.089ZM652.461 583.397L652.312 581.528C656.032 581.231 659.797 580.853 663.502 580.405L663.727 582.267C659.997 582.717 656.207 583.097 652.461 583.397ZM595.951 582.305C592.213 581.857 588.441 581.329 584.738 580.735L585.035 578.884C588.713 579.474 592.461 579.999 596.173 580.443L595.951 582.305ZM674.937 580.684L674.638 578.833C678.314 578.239 682.037 577.559 685.702 576.814L686.075 578.65C682.386 579.402 678.639 580.086 674.937 580.684H674.937ZM573.598 578.713C569.908 577.966 566.191 577.134 562.548 576.243L562.994 574.421C566.613 575.308 570.305 576.134 573.969 576.875L573.598 578.713ZM697.123 576.167L696.674 574.347C700.304 573.454 703.959 572.475 707.538 571.438L708.06 573.24C704.456 574.283 700.777 575.268 697.123 576.167ZM551.607 573.326C547.992 572.283 544.354 571.153 540.793 569.969L541.386 568.189C544.922 569.367 548.536 570.489 552.127 571.525L551.607 573.326ZM718.869 569.868L718.275 568.09C721.814 566.908 725.378 565.636 728.868 564.31L729.534 566.062C726.02 567.397 722.432 568.678 718.869 569.868ZM530.096 566.164C526.579 564.831 523.036 563.406 519.566 561.928L520.301 560.203C523.748 561.672 527.267 563.087 530.76 564.41L530.096 566.164ZM740.006 561.84L739.27 560.116C742.697 558.652 746.138 557.1 749.497 555.503L750.302 557.196C746.921 558.804 743.456 560.366 740.006 561.84ZM509.219 557.271C505.814 555.654 502.4 553.948 499.072 552.198L499.945 550.54C503.25 552.276 506.64 553.972 510.023 555.577L509.219 557.271ZM760.407 552.139L759.534 550.48C762.836 548.743 766.143 546.917 769.363 545.054L770.303 546.676C767.06 548.552 763.731 550.39 760.407 552.139H760.407ZM489.142 546.722C485.875 544.833 482.612 542.858 479.444 540.85L480.447 539.267C483.594 541.261 486.836 543.223 490.081 545.1L489.142 546.722ZM779.974 540.818L778.97 539.234C782.113 537.243 785.265 535.157 788.338 533.032L789.403 534.574C786.31 536.713 783.137 538.814 779.974 540.818H779.974ZM469.992 534.596C466.892 532.454 463.8 530.224 460.801 527.967L461.928 526.47C464.907 528.711 467.979 530.926 471.057 533.054L469.992 534.596ZM798.578 527.955L797.45 526.458C800.422 524.223 803.398 521.889 806.296 519.522L807.482 520.974C804.565 523.357 801.569 525.705 798.578 527.955ZM451.885 520.976C448.975 518.597 446.073 516.128 443.259 513.634L444.502 512.232C447.297 514.708 450.18 517.162 453.072 519.524L451.885 520.976ZM816.101 513.639L814.858 512.236C817.651 509.761 820.432 507.195 823.123 504.611L824.421 505.964C821.712 508.565 818.913 511.147 816.101 513.639H816.101ZM434.935 505.956C432.231 503.358 429.537 500.665 426.927 497.952L428.279 496.652C430.871 499.348 433.547 502.024 436.234 504.603L434.935 505.956ZM832.43 497.959L831.079 496.659C833.663 493.972 836.23 491.192 838.711 488.395L840.113 489.64C837.616 492.454 835.031 495.253 832.43 497.959V497.959ZM419.247 489.637C416.748 486.819 414.279 483.92 411.907 481.02L413.359 479.834C415.714 482.715 418.167 485.594 420.65 488.392L419.247 489.637ZM847.459 481.018L846.008 479.832C848.377 476.936 850.714 473.957 852.957 470.979L854.455 472.107C852.197 475.105 849.843 478.103 847.459 481.018V481.018ZM404.92 472.121C402.661 469.121 400.433 466.036 398.297 462.951L399.838 461.883C401.96 464.949 404.173 468.014 406.418 470.993L404.92 472.121ZM861.089 462.919L859.547 461.854C861.676 458.775 863.769 455.616 865.765 452.468L867.349 453.471C865.339 456.641 863.232 459.82 861.089 462.919V462.919ZM392.048 453.524C390.039 450.357 388.067 447.104 386.185 443.857L387.807 442.917C389.676 446.143 391.636 449.374 393.631 452.52L392.048 453.524ZM873.227 443.776L871.604 442.837C873.481 439.594 875.313 436.275 877.049 432.975L878.708 433.849C876.96 437.171 875.116 440.511 873.226 443.776H873.227ZM380.717 433.962C378.971 430.646 377.267 427.247 375.654 423.86L377.347 423.054C378.949 426.418 380.641 429.794 382.376 433.089L380.717 433.962ZM883.785 423.705L882.092 422.9C883.697 419.524 885.255 416.067 886.724 412.626L888.448 413.361C886.97 416.826 885.401 420.306 883.785 423.705ZM371.004 413.567C369.528 410.115 368.105 406.592 366.776 403.097L368.528 402.431C369.849 405.901 371.262 409.401 372.728 412.83L371.004 413.567ZM892.69 402.833L890.937 402.168C892.266 398.661 893.541 395.087 894.722 391.545L896.5 392.138C895.311 395.705 894.029 399.302 892.69 402.833ZM362.964 392.435C361.77 388.871 360.634 385.234 359.588 381.627L361.388 381.105C362.428 384.688 363.556 388.3 364.742 391.84L362.964 392.435ZM899.865 381.325L898.064 380.805C899.098 377.228 900.075 373.572 900.967 369.939L902.787 370.386C901.889 374.044 900.906 377.725 899.865 381.325V381.325ZM356.653 370.691C355.752 367.04 354.915 363.325 354.164 359.646L356.001 359.271C356.747 362.925 357.579 366.617 358.473 370.242L356.653 370.691ZM905.264 359.339L903.426 358.966C904.167 355.314 904.845 351.591 905.44 347.901L907.291 348.2C906.692 351.915 906.01 355.662 905.264 359.339V359.339ZM352.124 348.508C351.523 344.807 350.988 341.036 350.535 337.299L352.396 337.073C352.846 340.786 353.377 344.532 353.975 348.208L352.124 348.508ZM908.867 336.986L907.005 336.762C907.451 333.051 907.827 329.286 908.122 325.572L909.991 325.72C909.693 329.46 909.315 333.25 908.867 336.986V336.986ZM349.399 326.035C349.096 322.29 348.865 318.488 348.713 314.733L350.586 314.657C350.737 318.387 350.967 322.164 351.267 325.884L349.399 326.035ZM910.665 314.42L908.792 314.346C908.938 310.61 909.013 306.827 909.013 303.101L909.012 302.48H910.887L910.888 303.097C910.888 306.851 910.813 310.659 910.665 314.42H910.665ZM350.351 303.412H348.476L348.477 303.097C348.477 299.44 348.548 295.736 348.688 292.093L350.561 292.166C350.422 295.785 350.351 299.464 350.351 303.101L350.351 303.412ZM908.765 291.237C908.61 287.515 908.378 283.738 908.072 280.011L909.941 279.858C910.248 283.61 910.482 287.412 910.638 291.16L908.765 291.237ZM351.218 280.938L349.349 280.792C349.644 277.038 350.018 273.247 350.461 269.524L352.323 269.746C351.882 273.444 351.511 277.21 351.218 280.938ZM906.932 268.823C906.48 265.125 905.945 261.38 905.341 257.69L907.192 257.387C907.799 261.102 908.338 264.873 908.792 268.595L906.932 268.823ZM353.875 258.607L352.024 258.311C352.618 254.599 353.296 250.85 354.04 247.169L355.877 247.54C355.139 251.196 354.466 254.92 353.875 258.607ZM903.301 246.629C902.549 242.966 901.713 239.276 900.817 235.66L902.637 235.209C903.539 238.849 904.381 242.564 905.138 246.252L903.301 246.629ZM358.325 236.563L356.503 236.118C357.395 232.469 358.374 228.788 359.414 225.175L361.216 225.693C360.183 229.282 359.21 232.939 358.325 236.563H358.325ZM897.891 224.801C896.847 221.221 895.716 217.61 894.526 214.07L896.303 213.473C897.501 217.037 898.64 220.672 899.69 224.277L897.891 224.801ZM364.545 214.951L362.766 214.359C363.952 210.79 365.23 207.19 366.564 203.66L368.318 204.323C366.993 207.83 365.723 211.405 364.545 214.951ZM890.727 203.483C889.395 199.996 887.978 196.499 886.515 193.088L888.238 192.35C889.711 195.783 891.138 199.304 892.479 202.814L890.727 203.483ZM372.519 193.861L370.794 193.127C372.267 189.663 373.833 186.181 375.446 182.778L377.14 183.581C375.537 186.962 373.983 190.42 372.519 193.861ZM881.885 182.868C880.28 179.508 878.585 176.134 876.846 172.84L878.503 171.964C880.255 175.28 881.962 178.677 883.577 182.061L881.885 182.868ZM382.173 173.5L380.512 172.629C382.26 169.298 384.1 165.956 385.983 162.695L387.607 163.633C385.737 166.872 383.908 170.192 382.173 173.5L382.173 173.5ZM871.403 163.019C869.528 159.792 867.566 156.564 865.568 153.422L867.15 152.416C869.161 155.579 871.137 158.829 873.024 162.077L871.403 163.019ZM393.434 153.996L391.849 152.994C393.86 149.814 395.963 146.633 398.099 143.538L399.642 144.603C397.52 147.677 395.431 150.837 393.434 153.996V153.996ZM859.35 144.065C857.224 141.001 855.007 137.938 852.761 134.963L854.257 133.833C856.518 136.828 858.75 139.911 860.89 142.997L859.35 144.065ZM406.221 135.47L404.723 134.344C406.982 131.337 409.332 128.336 411.708 125.424L413.161 126.61C410.801 129.502 408.466 132.483 406.221 135.47L406.221 135.47ZM845.811 126.129C843.446 123.245 840.989 120.368 838.511 117.58L839.911 116.334C842.407 119.141 844.88 122.037 847.261 124.941L845.811 126.129ZM420.449 118.036L419.046 116.794C421.534 113.982 424.116 111.18 426.72 108.466L428.073 109.764C425.487 112.46 422.922 115.243 420.449 118.036V118.036ZM830.873 109.326C828.278 106.635 825.599 103.963 822.908 101.384L824.205 100.03C826.914 102.626 829.611 105.316 832.222 108.025L830.873 109.326ZM436.019 101.804L434.719 100.453C437.424 97.8501 440.221 95.265 443.031 92.7688L444.276 94.1702C441.484 96.65 438.706 99.2186 436.019 101.804L436.019 101.804ZM814.632 93.7647C811.831 91.2882 808.945 88.8377 806.055 86.482L807.239 85.0288C810.148 87.4006 813.054 89.8671 815.873 92.3606L814.632 93.7647ZM452.831 86.8747L451.642 85.4247C454.551 83.0424 457.544 80.6903 460.539 78.433L461.667 79.9296C458.693 82.1719 455.719 84.5088 452.83 86.8746L452.831 86.8747ZM797.189 79.5475C794.199 77.303 791.124 75.0909 788.053 72.9727L789.117 71.4294C792.209 73.5618 795.304 75.7885 798.315 78.0481L797.189 79.5475ZM470.774 73.3439L469.706 71.8033C472.796 69.6618 475.967 67.5578 479.129 65.5494L480.135 67.1321C476.993 69.1267 473.844 71.2165 470.774 73.3439V73.3439ZM778.657 66.7687C775.496 64.7723 772.253 62.8138 769.016 60.9478L769.953 59.3239C773.21 61.2023 776.475 63.174 779.658 65.1838L778.657 66.7687ZM489.734 61.3035L488.794 59.6814C492.035 57.8016 495.362 55.9599 498.683 54.2083L499.558 55.8661C496.259 57.6062 492.954 59.4356 489.734 61.3034V61.3035ZM759.147 55.5187C755.836 53.784 752.444 52.0929 749.063 50.4923L749.865 48.798C753.268 50.409 756.685 52.1116 760.017 53.8582L759.147 55.5187ZM509.588 50.8319L508.781 49.1393C512.162 47.5278 515.624 45.9616 519.073 44.4842L519.811 46.2074C516.386 47.6747 512.946 49.2304 509.588 50.8318V50.8319ZM738.781 45.8774C735.335 44.4142 731.814 43.0031 728.316 41.6822L728.979 39.9283C732.5 41.2579 736.045 42.679 739.513 44.1519L738.781 45.8774ZM530.209 42.0012L529.541 40.2492C533.049 38.9118 536.635 37.6275 540.201 36.4316L540.796 38.2093C537.255 39.3969 533.693 40.6729 530.209 42.0011V42.0012ZM717.686 37.9145C714.143 36.7396 710.528 35.6215 706.941 34.5912L707.459 32.7897C711.07 33.8268 714.709 34.9523 718.275 36.135L717.686 37.9145ZM551.531 34.8488L551.007 33.0492C554.612 32.0002 558.291 31.0107 561.941 30.1076L562.392 31.9274C558.766 32.8244 555.112 33.8075 551.531 34.8488V34.8488ZM696.07 31.7068C692.451 30.8239 688.757 30.0024 685.092 29.265L685.461 27.4269C689.151 28.1693 692.87 28.9968 696.514 29.8852L696.07 31.7068ZM573.361 29.4499L572.985 27.6136C576.66 26.8611 580.407 26.1728 584.121 25.5673L584.423 27.4173C580.733 28.0191 577.012 28.7029 573.361 29.4499ZM674.024 27.2694C670.337 26.6817 666.589 26.1609 662.883 25.7224L663.104 23.8605C666.834 24.3022 670.607 24.8263 674.318 25.4185L674.024 27.2694ZM595.557 25.8327L595.33 23.9717C599.059 23.5177 602.849 23.1327 606.594 22.8289L606.746 24.6972C603.026 24.9997 599.261 25.3815 595.557 25.8327H595.557ZM651.691 24.624C647.974 24.3342 644.197 24.1155 640.463 23.974L640.534 22.1003C644.293 22.2431 648.095 22.4633 651.836 22.7547L651.691 24.624ZM617.972 24.0102L617.895 22.1373C621.644 21.9826 625.452 21.9012 629.215 21.8948L629.218 23.7695C625.48 23.7759 621.697 23.8569 617.972 24.0102H617.972Z" fill="#CCCCCC"/>
<path d="M530.383 478.594C630.297 478.594 711.292 397.599 711.292 297.685C711.292 197.772 630.297 116.776 530.383 116.776C430.47 116.776 349.475 197.772 349.475 297.685C349.475 397.599 430.47 478.594 530.383 478.594Z" fill="#3F3D56"/>
<path d="M466.175 429.852C519.238 429.852 562.253 370.679 562.253 297.685C562.253 224.692 519.238 165.519 466.175 165.519C413.112 165.519 370.096 224.692 370.096 297.685C370.096 370.679 413.112 429.852 466.175 429.852Z" fill="white"/>
<path d="M434.326 367.866C449.135 367.866 461.14 348.981 461.14 325.685C461.14 302.389 449.135 283.504 434.326 283.504C419.517 283.504 407.511 302.389 407.511 325.685C407.511 348.981 419.517 367.866 434.326 367.866Z" fill="#3F3D56"/>
<path d="M885.817 214.464C895.653 214.464 903.627 206.491 903.627 196.655C903.627 186.819 895.653 178.845 885.817 178.845C875.981 178.845 868.007 186.819 868.007 196.655C868.007 206.491 875.981 214.464 885.817 214.464Z" fill="#87A2A8"/>
<path d="M680.092 52.4917C694.587 52.4917 706.338 40.741 706.338 26.2459C706.338 11.7507 694.587 0 680.092 0C665.597 0 653.846 11.7507 653.846 26.2459C653.846 40.741 665.597 52.4917 680.092 52.4917Z" fill="#87A2A8"/>
<path d="M662.704 599.161C672.54 599.161 680.514 591.187 680.514 581.351C680.514 571.515 672.54 563.541 662.704 563.541C652.868 563.541 644.895 571.515 644.895 581.351C644.895 591.187 652.868 599.161 662.704 599.161Z" fill="#87A2A8"/>
</g>
<defs>
<clipPath id="clip0">
<rect width="910.888" height="653.614" fill="white"/>
</clipPath>
</defs>
</svg>
