<svg width="984" height="587" viewBox="0 0 984 587" fill="none" xmlns="http://www.w3.org/2000/svg">
<g clip-path="url(#clip0)">
<path d="M819.238 581.297C810.246 573.698 804.783 561.695 806.216 550.009C807.648 538.324 816.521 527.581 828.029 525.099C839.538 522.618 852.657 529.487 856.152 540.729C858.076 519.055 860.293 496.472 871.816 478.014C882.251 461.301 900.323 449.342 919.91 447.203C939.496 445.063 960.118 453.144 972.333 468.603C984.548 484.062 987.539 506.537 978.984 524.285C972.682 537.36 961.07 547.091 948.905 555.007C909.593 580.371 862.444 590.686 816.133 584.053" fill="#F2F2F2"/>
<path d="M952.964 453.592C936.803 466.755 921.977 481.477 908.7 497.546C887.922 522.606 871.109 550.704 858.845 580.86C857.947 583.06 861.519 584.017 862.407 581.842C882.473 532.833 914.506 489.636 955.577 456.204C957.421 454.702 954.794 452.102 952.964 453.592V453.592Z" fill="white"/>
<path d="M483.5 37C483.499 37.265 483.394 37.5188 483.206 37.7062C483.019 37.8936 482.765 37.9992 482.5 38H482.02C481.28 37.36 480.56 36.69 479.86 36H482.5C482.765 36.0008 483.019 36.1064 483.206 36.2938C483.394 36.4811 483.499 36.735 483.5 37Z" fill="#F2F2F2"/>
<path d="M507.5 0H256.5C254.644 0.00206189 252.865 0.740213 251.553 2.05252C250.24 3.36483 249.502 5.14412 249.5 7V143C249.502 144.856 250.24 146.635 251.553 147.947C252.865 149.26 254.644 149.998 256.5 150H507.5C509.356 149.998 511.135 149.26 512.447 147.947C513.76 146.635 514.498 144.856 514.5 143V7C514.498 5.14412 513.76 3.36483 512.447 2.05252C511.135 0.740213 509.356 0.00206189 507.5 0ZM512.5 143C512.499 144.326 511.973 145.597 511.035 146.535C510.097 147.472 508.826 147.999 507.5 148H256.5C255.174 147.999 253.903 147.472 252.965 146.535C252.027 145.597 251.501 144.326 251.5 143V7C251.501 5.67408 252.027 4.40261 252.965 3.46504C253.903 2.52748 255.174 2.00053 256.5 2H507.5C508.826 2.00053 510.097 2.52748 511.035 3.46504C511.973 4.40261 512.499 5.67408 512.5 7V143Z" fill="#3F3D56"/>
<path d="M355.22 59.1599C352.23 51.9799 347.58 45.9999 340.82 42.0399C333.73 37.8699 325.62 34.3999 317.46 33.1499C309.292 31.9423 300.963 32.4084 292.98 34.5199C291.94 34.7899 290.86 35.0799 289.78 35.3999C286.972 36.1248 284.303 37.3073 281.88 38.8999C281.8 38.9499 281.72 38.9999 281.64 39.0599C278.54 41.3399 276.42 45.0999 274.68 48.4699C273.03 51.6999 271.99 55.2599 272.89 58.8699C273.866 62.1629 275.897 65.044 278.67 67.0699C280.6 68.5899 283.13 70.5099 285.71 70.5499C286.32 70.5635 286.927 70.4618 287.5 70.2499C287.679 70.1869 287.85 70.103 288.01 69.9999C289.05 70.3121 290.125 70.4902 291.21 70.5299C295.6 70.7299 299.99 68.8699 304.5 67.3499C305.557 66.981 306.64 66.6903 307.74 66.4799C309.709 66.0513 311.754 66.12 313.69 66.6799C314.047 66.7809 314.398 66.9045 314.74 67.0499C318.081 68.6165 320.9 71.1128 322.86 74.2399C324.77 77.0799 326.03 80.3099 328.13 83.0399C329.172 84.4468 330.499 85.619 332.024 86.4803C333.548 87.3417 335.237 87.873 336.98 88.0399C342.22 88.6199 348.8 88.3399 353.31 85.1899C354.534 84.3539 355.584 83.2873 356.4 82.0499C356.48 81.9299 356.56 81.8099 356.63 81.6899C360.78 74.8599 358.06 65.9499 355.22 59.1599ZM286.13 48.6699C287.13 48.7799 288.14 48.8999 289.14 49.0099C287.227 49.3515 285.438 50.1894 283.95 51.4399C283.385 51.9198 282.86 52.4448 282.38 53.0099C282.4 52.9699 282.4 52.9199 282.42 52.8799C282.713 51.9595 283.194 51.1101 283.833 50.3854C284.472 49.6607 285.254 49.0765 286.13 48.6699V48.6699ZM346.42 74.0699C346.6 74.0299 346.79 73.9999 346.97 73.9699C347.258 73.925 347.531 73.8156 347.77 73.6499C347.77 73.6799 347.78 73.7199 347.78 73.7499C347.782 73.8837 347.792 74.0173 347.81 74.1499C347.76 74.2299 347.72 74.3099 347.67 74.3899C347.25 74.2799 346.84 74.1699 346.42 74.0699L346.42 74.0699ZM343.63 49.7499C345.844 51.8408 347.729 54.2548 349.22 56.9099C347.455 54.7534 345.504 52.7557 343.39 50.9399C343.549 50.5633 343.631 50.1586 343.63 49.7499V49.7499ZM341.2 78.1199C341.114 78.2662 341.05 78.4246 341.01 78.5899C340.74 78.5999 340.46 78.6099 340.18 78.6099H340.04C340.03 78.5699 340.01 78.5199 340 78.4799C339.94 78.2999 339.89 78.1199 339.83 77.9399C340.29 77.9999 340.74 78.0599 341.2 78.1199V78.1199ZM319.82 55.6899C319.847 55.4877 319.853 55.2834 319.84 55.0799C320.06 55.246 320.318 55.3558 320.59 55.3999C320.62 55.4099 320.66 55.4099 320.69 55.4199C320.88 55.5299 321.06 55.6299 321.25 55.7399L321.19 55.8299C320.73 55.7799 320.27 55.7399 319.82 55.6899V55.6899ZM335.66 50.7099H335.63C334.97 50.2999 334.31 49.8899 333.64 49.4999C334.32 49.8799 335 50.2899 335.66 50.7099V50.7099ZM331.98 69.4499C331.877 69.5534 331.789 69.6713 331.72 69.7999C331.67 69.7299 331.63 69.6699 331.58 69.5999C331.706 69.5318 331.84 69.4814 331.98 69.4499V69.4499ZM323.02 49.8599C322.798 49.6834 322.552 49.5387 322.29 49.4299C321.002 48.933 319.682 48.522 318.34 48.1999C318.14 48.0099 317.94 47.8199 317.75 47.6199C318.885 47.8396 320.007 48.1233 321.11 48.4699C322.523 48.923 323.908 49.4572 325.26 50.0699C324.51 49.9899 323.77 49.9199 323.02 49.8599L323.02 49.8599ZM315.4 37.3199C318.277 37.704 321.113 38.3534 323.87 39.2599C323.59 39.1899 323.31 39.1299 323.03 39.0599C320.38 38.4599 317.68 37.8199 314.96 37.2699C315.11 37.2899 315.25 37.2999 315.4 37.3199L315.4 37.3199Z" fill="#CCCCCC"/>
<path d="M326.173 114.977C323.65 114.906 320.511 114.818 318.094 113.053C317.374 112.505 316.783 111.807 316.361 111.006C315.939 110.206 315.698 109.323 315.653 108.42C315.609 107.778 315.715 107.135 315.961 106.54C316.207 105.946 316.588 105.416 317.072 104.993C317.793 104.455 318.636 104.106 319.526 103.978C320.416 103.85 321.324 103.947 322.167 104.259L320.108 89.2117L321.619 89.0046L324.04 106.695L322.778 106.116C321.314 105.445 319.306 105.103 318.057 106.158C317.751 106.434 317.512 106.776 317.359 107.159C317.207 107.542 317.145 107.955 317.178 108.366C317.215 109.038 317.396 109.695 317.71 110.291C318.023 110.887 318.461 111.409 318.994 111.82C320.875 113.195 323.377 113.372 326.215 113.452L326.173 114.977Z" fill="#3F3D56"/>
<path d="M312.633 90.5093H304.416V92.0349H312.633V90.5093Z" fill="#3F3D56"/>
<path d="M338.569 90.5093H330.352V92.0349H338.569V90.5093Z" fill="#3F3D56"/>
<path d="M290.14 69.4418C283.523 68.6872 278.398 62.3472 277.835 55.9145C277.166 48.2617 281.622 40.9932 287.737 36.6988C294.131 32.2078 302.098 30.3324 309.806 29.9195C324.842 29.1713 339.619 34.042 351.264 43.5846C357.04 48.3817 362.434 54.4923 364.478 61.8731C366.254 68.283 364.809 75.5447 359.654 80.034C358.378 81.1342 356.889 81.958 355.279 82.4536C353.67 82.9493 351.975 83.1058 350.301 82.9135C346.301 82.4981 342.61 80.3948 339.415 78.0719C333.201 73.5533 328.099 67.2585 320.527 64.8973C314.976 63.1659 307.771 64.6899 304.379 69.7103C303.609 70.8596 303.11 72.1686 302.92 73.5387C302.85 73.831 302.893 74.1389 303.041 74.4002C303.19 74.6616 303.432 74.8567 303.719 74.9463C304.011 75.0251 304.323 74.9854 304.587 74.8358C304.85 74.6862 305.044 74.4387 305.126 74.1471C306.017 67.8237 313.792 65.4641 319.248 66.9082C327.204 69.0137 332.544 76.1126 339.071 80.6228C342.449 83.142 346.43 84.7308 350.614 85.2304C354.243 85.515 357.844 84.4088 360.686 82.1362C366.262 77.7332 368.395 70.1602 367.162 63.342C365.734 55.4464 360.42 48.6793 354.589 43.4402C342.768 32.9314 327.422 27.2622 311.608 27.5624C303.542 27.7476 295.126 29.4127 288.177 33.6759C281.437 37.8111 276.227 44.7293 275.546 52.7711C274.947 59.8493 278.745 67.2528 285.264 70.3539C286.801 71.0819 288.449 71.5472 290.14 71.7303C291.601 71.8969 291.589 69.607 290.14 69.4418H290.14Z" fill="#3F3D56"/>
<path d="M483.5 37C483.499 37.265 483.394 37.5188 483.206 37.7062C483.019 37.8936 482.765 37.9992 482.5 38H400.5C400.235 38 399.98 37.8946 399.793 37.7071C399.605 37.5196 399.5 37.2652 399.5 37C399.5 36.7348 399.605 36.4804 399.793 36.2929C399.98 36.1054 400.235 36 400.5 36H482.5C482.765 36.0008 483.019 36.1064 483.206 36.2938C483.394 36.4811 483.499 36.735 483.5 37Z" fill="#3F3D56"/>
<path d="M482.5 53H400.5C400.235 53 399.98 52.8946 399.793 52.7071C399.605 52.5196 399.5 52.2652 399.5 52C399.5 51.7348 399.605 51.4804 399.793 51.2929C399.98 51.1054 400.235 51 400.5 51H482.5C482.765 51 483.02 51.1054 483.207 51.2929C483.395 51.4804 483.5 51.7348 483.5 52C483.5 52.2652 483.395 52.5196 483.207 52.7071C483.02 52.8946 482.765 53 482.5 53Z" fill="#3F3D56"/>
<path d="M482.5 68H400.5C400.235 68 399.98 67.8946 399.793 67.7071C399.605 67.5196 399.5 67.2652 399.5 67C399.5 66.7348 399.605 66.4804 399.793 66.2929C399.98 66.1054 400.235 66 400.5 66H482.5C482.765 66 483.02 66.1054 483.207 66.2929C483.395 66.4804 483.5 66.7348 483.5 67C483.5 67.2652 483.395 67.5196 483.207 67.7071C483.02 67.8946 482.765 68 482.5 68Z" fill="#3F3D56"/>
<path d="M482.5 83H400.5C400.235 83 399.98 82.8946 399.793 82.7071C399.605 82.5196 399.5 82.2652 399.5 82C399.5 81.7348 399.605 81.4804 399.793 81.2929C399.98 81.1054 400.235 81 400.5 81H482.5C482.765 81 483.02 81.1054 483.207 81.2929C483.395 81.4804 483.5 81.7348 483.5 82C483.5 82.2652 483.395 82.5196 483.207 82.7071C483.02 82.8946 482.765 83 482.5 83Z" fill="#3F3D56"/>
<path d="M482.5 98H400.5C400.235 98 399.98 97.8946 399.793 97.7071C399.605 97.5196 399.5 97.2652 399.5 97C399.5 96.7348 399.605 96.4804 399.793 96.2929C399.98 96.1054 400.235 96 400.5 96H482.5C482.765 96 483.02 96.1054 483.207 96.2929C483.395 96.4804 483.5 96.7348 483.5 97C483.5 97.2652 483.395 97.5196 483.207 97.7071C483.02 97.8946 482.765 98 482.5 98Z" fill="#3F3D56"/>
<path d="M482.5 113H400.5C400.235 113 399.98 112.895 399.793 112.707C399.605 112.52 399.5 112.265 399.5 112C399.5 111.735 399.605 111.48 399.793 111.293C399.98 111.105 400.235 111 400.5 111H482.5C482.765 111 483.02 111.105 483.207 111.293C483.395 111.48 483.5 111.735 483.5 112C483.5 112.265 483.395 112.52 483.207 112.707C483.02 112.895 482.765 113 482.5 113Z" fill="#3F3D56"/>
<path d="M186.131 246.555C183.344 246.563 180.653 245.536 178.58 243.674C177.42 242.639 176.483 241.378 175.828 239.968C175.173 238.558 174.812 237.029 174.769 235.475L130.393 203.201C129.054 202.227 127.942 200.975 127.134 199.53C126.325 198.085 125.839 196.483 125.71 194.832C125.58 193.181 125.81 191.522 126.383 189.969C126.957 188.416 127.86 187.006 129.03 185.835L162.069 152.797C163.43 151.435 165.164 150.508 167.053 150.133C168.941 149.757 170.898 149.95 172.677 150.687C174.456 151.423 175.976 152.671 177.046 154.272C178.115 155.873 178.686 157.755 178.686 159.68C178.416 164.731 176.426 169.537 173.045 173.299L150.613 195.731L185.821 223.796C185.93 223.789 186.038 223.783 186.148 223.783C189.055 223.783 191.852 224.894 193.966 226.89C196.08 228.886 197.35 231.614 197.517 234.517C197.684 237.419 196.734 240.275 194.863 242.499C192.992 244.724 190.341 246.149 187.453 246.481C187.014 246.53 186.572 246.555 186.131 246.555Z" fill="#FFB8B8"/>
<path d="M238.863 437.183L250.77 432.738L239.291 384.695L221.717 391.256L238.863 437.183Z" fill="#FFB8B8"/>
<path d="M277.861 435.222L240.439 449.192L235.041 434.734L258.517 425.97C262.216 424.589 266.312 424.734 269.904 426.373C273.495 428.012 276.289 431.011 277.67 434.71L277.861 435.222Z" fill="#2F2E41"/>
<path d="M131.741 439.363H144.451L150.497 390.339L131.739 390.34L131.741 439.363Z" fill="#FFB8B8"/>
<path d="M168.963 451.164L129.018 451.165L129.017 435.732L154.075 435.731C158.024 435.731 161.81 437.299 164.602 440.091C167.394 442.882 168.963 446.669 168.963 450.617L168.963 451.164Z" fill="#2F2E41"/>
<path d="M145.459 425.986C145.316 425.986 145.173 425.979 145.03 425.965L131.557 424.682C130.464 424.578 129.447 424.078 128.697 423.276C127.947 422.475 127.516 421.426 127.485 420.329C126.708 391.153 124.749 243.9 162.642 210.156C163.299 209.578 164.114 209.21 164.981 209.099V209.098C171.845 208.157 195.001 205.85 204.803 215.709C205.425 216.33 205.856 217.116 206.044 217.974L248.952 416.362C249.084 416.972 249.088 417.603 248.963 418.215C248.837 418.827 248.586 419.406 248.225 419.916C247.864 420.425 247.401 420.854 246.865 421.174C246.329 421.495 245.732 421.701 245.112 421.778L228.661 423.834C228.067 423.909 227.464 423.865 226.887 423.704C226.31 423.542 225.772 423.267 225.303 422.895C224.834 422.523 224.444 422.06 224.156 421.535C223.869 421.01 223.689 420.433 223.627 419.837C221.99 403.89 212.154 322.887 179.192 294.174C178.746 293.782 178.208 293.508 177.629 293.378C177.049 293.247 176.446 293.265 175.875 293.428C175.316 293.583 174.805 293.878 174.392 294.286C173.978 294.693 173.675 295.199 173.511 295.755C167.409 315.722 147.675 383.776 149.943 421.217C149.981 421.829 149.893 422.442 149.685 423.019C149.477 423.596 149.152 424.124 148.732 424.571C148.312 425.018 147.805 425.374 147.242 425.617C146.679 425.861 146.072 425.986 145.459 425.986V425.986Z" fill="#2F2E41"/>
<path d="M171.388 128.982C184.953 128.982 195.949 117.986 195.949 104.421C195.949 90.8562 184.953 79.8599 171.388 79.8599C157.823 79.8599 146.827 90.8562 146.827 104.421C146.827 117.986 157.823 128.982 171.388 128.982Z" fill="#FFB8B8"/>
<path d="M147.272 150.677C147.272 150.677 170.079 123.722 188.74 145.493C200.747 159.501 207.097 177.484 206.55 195.925L205.846 219.618L162.822 212.879L147.272 150.677Z" fill="#84A882"/>
<path d="M207.208 202.906C207.029 202.906 206.85 202.902 206.671 202.895C204.833 202.819 203.033 202.345 201.396 201.505C199.759 200.666 198.324 199.481 197.189 198.033L169.274 162.44C168.086 160.925 167.373 159.092 167.227 157.172C167.081 155.252 167.507 153.332 168.452 151.655C169.397 149.977 170.818 148.618 172.535 147.748C174.253 146.878 176.19 146.537 178.101 146.768L182.032 147.243C184.541 147.683 186.825 148.97 188.502 150.888L210.523 178.965L242.61 147.379C242.616 147.271 242.624 147.162 242.637 147.053C242.905 144.83 243.823 142.736 245.275 141.032C246.727 139.327 248.65 138.089 250.802 137.472C252.954 136.855 255.241 136.886 257.375 137.561C259.51 138.237 261.398 139.526 262.804 141.269C264.21 143.012 265.07 145.131 265.278 147.36C265.486 149.59 265.031 151.831 263.972 153.803C262.913 155.776 261.296 157.393 259.322 158.451C257.349 159.509 255.108 159.962 252.879 159.753L216.526 198.845C215.336 200.127 213.894 201.149 212.291 201.848C210.688 202.546 208.957 202.907 207.208 202.906Z" fill="#FFB8B8"/>
<path d="M175.369 108.67L185.922 96.2382C188.641 93.0344 191.486 89.5448 191.87 85.3601C192.292 80.7729 189.502 76.314 185.687 73.7313C181.873 71.1487 177.189 70.1768 172.596 69.8202C164.078 69.1588 155.114 70.5665 148.112 75.4616C141.109 80.3568 136.528 89.1943 138.235 97.5658C139.58 104.157 144.534 110.472 142.608 116.918C140.501 123.971 131.861 126.135 124.807 128.238C112.967 131.768 101.661 138.718 95.4558 149.402C89.2506 160.087 89.2777 174.819 97.5494 183.997C102.906 189.94 110.984 192.946 118.972 193.398C126.959 193.85 134.91 191.969 142.485 189.396C149.462 187.026 156.363 183.978 161.856 179.066C167.348 174.155 171.305 167.127 171.134 159.761C170.97 152.741 167.21 146.346 165.665 139.497C164.447 133.761 164.766 127.805 166.592 122.232C168.418 116.66 171.684 111.67 176.061 107.767" fill="#2F2E41"/>
<path d="M687.5 357H436.5C434.644 356.998 432.865 356.26 431.553 354.947C430.24 353.635 429.502 351.856 429.5 350V214C429.502 212.144 430.24 210.365 431.553 209.053C432.865 207.74 434.644 207.002 436.5 207H687.5C689.356 207.002 691.135 207.74 692.447 209.053C693.76 210.365 694.498 212.144 694.5 214V350C694.498 351.856 693.76 353.635 692.447 354.947C691.135 356.26 689.356 356.998 687.5 357ZM436.5 209C435.174 209.002 433.904 209.529 432.966 210.466C432.029 211.404 431.502 212.674 431.5 214V350C431.502 351.326 432.029 352.596 432.966 353.534C433.904 354.471 435.174 354.998 436.5 355H687.5C688.826 354.998 690.096 354.471 691.034 353.534C691.971 352.596 692.498 351.326 692.5 350V214C692.498 212.674 691.971 211.404 691.034 210.466C690.096 209.529 688.826 209.002 687.5 209H436.5Z" fill="#3F3D56"/>
<path d="M535.224 266.157C532.229 258.985 527.576 253.003 520.821 249.037C513.725 244.871 505.625 241.402 497.464 240.151C489.294 238.944 480.965 239.41 472.981 241.521C469.132 242.518 464.89 243.676 461.644 246.062C458.541 248.344 456.415 252.097 454.685 255.468C453.027 258.698 451.993 262.255 452.891 265.873C453.866 269.167 455.899 272.048 458.674 274.073C461.037 275.939 464.341 278.41 467.501 277.253C467.68 277.187 467.851 277.101 468.011 276.995C473.468 278.656 478.894 276.241 484.495 274.35C487.9 273.201 491.323 272.62 494.742 274.054C498.083 275.618 500.902 278.112 502.862 281.236C504.774 284.082 506.033 287.314 508.13 290.042C509.173 291.447 510.5 292.617 512.023 293.478C513.547 294.338 515.234 294.869 516.976 295.037C523.744 295.795 532.728 295.097 536.627 288.688C540.783 281.859 538.064 272.954 535.224 266.157ZM466.131 255.668C467.135 255.782 468.139 255.896 469.143 256.01C467.23 256.354 465.441 257.193 463.952 258.444C463.386 258.921 462.861 259.446 462.383 260.011C462.397 259.966 462.405 259.922 462.42 259.876C462.715 258.956 463.197 258.108 463.836 257.384C464.474 256.66 465.256 256.076 466.131 255.668ZM499.835 262.08C500.058 262.247 500.318 262.358 500.593 262.403C500.625 262.408 500.657 262.414 500.689 262.419C500.876 262.526 501.063 262.633 501.25 262.738C501.229 262.767 501.213 262.8 501.193 262.83C500.734 262.783 500.275 262.737 499.816 262.691C499.848 262.489 499.855 262.283 499.835 262.08ZM511.985 276.446C511.883 276.553 511.794 276.672 511.718 276.799C511.673 276.733 511.628 276.668 511.583 276.602C511.707 276.529 511.843 276.476 511.985 276.446ZM519.831 284.939C520.286 284.998 520.741 285.058 521.196 285.118C521.111 285.266 521.049 285.425 521.011 285.591C520.689 285.602 520.363 285.607 520.038 285.608L519.831 284.939ZM526.421 281.066L526.97 280.972C527.258 280.925 527.532 280.816 527.773 280.653C527.774 280.685 527.777 280.717 527.778 280.75C527.782 280.859 527.792 280.996 527.806 281.152C527.761 281.23 527.716 281.309 527.668 281.386C527.252 281.279 526.837 281.173 526.421 281.066ZM503.02 256.865C502.801 256.683 502.554 256.538 502.289 256.435C501 255.937 499.68 255.524 498.338 255.199C498.137 255.01 497.94 254.816 497.749 254.617C498.882 254.841 500.003 255.126 501.106 255.472C502.52 255.925 503.907 256.458 505.26 257.069C504.512 256.986 503.766 256.918 503.02 256.865ZM515.626 257.71C514.968 257.298 514.306 256.895 513.64 256.499C514.323 256.884 514.996 257.287 515.659 257.709L515.626 257.71ZM529.218 263.913C527.454 261.755 525.503 259.757 523.388 257.942C523.551 257.567 523.633 257.161 523.629 256.752C525.845 258.841 527.729 261.256 529.218 263.913ZM503.869 246.255C503.59 246.191 503.311 246.126 503.032 246.063C500.382 245.465 497.683 244.821 494.959 244.274C495.105 244.291 495.251 244.305 495.397 244.324C498.275 244.705 501.111 245.351 503.869 246.255Z" fill="#F5DAD5"/>
<path d="M506.172 321.976C503.65 321.906 500.511 321.818 498.094 320.052C497.374 319.505 496.783 318.806 496.361 318.006C495.939 317.206 495.698 316.323 495.653 315.42C495.609 314.778 495.715 314.134 495.961 313.54C496.207 312.945 496.588 312.416 497.072 311.993C497.793 311.455 498.636 311.106 499.526 310.978C500.416 310.85 501.324 310.946 502.167 311.259L500.108 296.212L501.619 296.004L504.04 313.695L502.778 313.116C501.314 312.444 499.306 312.103 498.057 313.158C497.751 313.433 497.512 313.776 497.359 314.159C497.207 314.542 497.145 314.955 497.178 315.366C497.215 316.038 497.396 316.695 497.71 317.291C498.023 317.887 498.461 318.408 498.994 318.82C500.875 320.195 503.377 320.372 506.215 320.452L506.172 321.976Z" fill="#3F3D56"/>
<path d="M492.633 297.509H484.416V299.035H492.633V297.509Z" fill="#3F3D56"/>
<path d="M518.569 297.509H510.352V299.035H518.569V297.509Z" fill="#3F3D56"/>
<path d="M470.14 276.442C463.523 275.687 458.398 269.347 457.835 262.914C457.166 255.262 461.622 247.993 467.737 243.699C474.131 239.208 482.098 237.332 489.806 236.92C504.842 236.171 519.619 241.042 531.264 250.585C537.04 255.382 542.434 261.492 544.478 268.873C546.254 275.283 544.809 282.545 539.654 287.034C538.378 288.134 536.889 288.958 535.279 289.454C533.67 289.949 531.975 290.106 530.301 289.914C526.301 289.498 522.61 287.395 519.415 285.072C513.201 280.553 508.099 274.258 500.527 271.897C494.976 270.166 487.771 271.69 484.379 276.71C483.609 277.86 483.11 279.169 482.92 280.539C482.85 280.831 482.893 281.139 483.041 281.4C483.19 281.662 483.432 281.857 483.719 281.946C484.011 282.025 484.323 281.985 484.587 281.836C484.85 281.686 485.044 281.439 485.126 281.147C486.017 274.824 493.792 272.464 499.248 273.908C507.204 276.014 512.544 283.113 519.071 287.623C522.449 290.142 526.43 291.731 530.614 292.23C534.243 292.515 537.844 291.409 540.686 289.136C546.262 284.733 548.395 277.16 547.162 270.342C545.734 262.446 540.42 255.679 534.589 250.44C522.768 239.931 507.422 234.262 491.608 234.562C483.542 234.748 475.126 236.413 468.177 240.676C461.437 244.811 456.227 251.729 455.546 259.771C454.947 266.849 458.745 274.253 465.264 277.354C466.801 278.082 468.449 278.547 470.14 278.73C471.601 278.897 471.589 276.607 470.14 276.442H470.14Z" fill="#3F3D56"/>
<path d="M662.5 245H580.5C580.235 245 579.98 244.895 579.793 244.707C579.605 244.52 579.5 244.265 579.5 244C579.5 243.735 579.605 243.48 579.793 243.293C579.98 243.105 580.235 243 580.5 243H662.5C662.765 243 663.02 243.105 663.207 243.293C663.395 243.48 663.5 243.735 663.5 244C663.5 244.265 663.395 244.52 663.207 244.707C663.02 244.895 662.765 245 662.5 245Z" fill="#3F3D56"/>
<path d="M662.5 260H580.5C580.235 260 579.98 259.895 579.793 259.707C579.605 259.52 579.5 259.265 579.5 259C579.5 258.735 579.605 258.48 579.793 258.293C579.98 258.105 580.235 258 580.5 258H662.5C662.765 258 663.02 258.105 663.207 258.293C663.395 258.48 663.5 258.735 663.5 259C663.5 259.265 663.395 259.52 663.207 259.707C663.02 259.895 662.765 260 662.5 260Z" fill="#3F3D56"/>
<path d="M662.5 275H580.5C580.235 275 579.98 274.895 579.793 274.707C579.605 274.52 579.5 274.265 579.5 274C579.5 273.735 579.605 273.48 579.793 273.293C579.98 273.105 580.235 273 580.5 273H662.5C662.765 273 663.02 273.105 663.207 273.293C663.395 273.48 663.5 273.735 663.5 274C663.5 274.265 663.395 274.52 663.207 274.707C663.02 274.895 662.765 275 662.5 275Z" fill="#3F3D56"/>
<path d="M662.5 290H580.5C580.235 290 579.98 289.895 579.793 289.707C579.605 289.52 579.5 289.265 579.5 289C579.5 288.735 579.605 288.48 579.793 288.293C579.98 288.105 580.235 288 580.5 288H662.5C662.765 288 663.02 288.105 663.207 288.293C663.395 288.48 663.5 288.735 663.5 289C663.5 289.265 663.395 289.52 663.207 289.707C663.02 289.895 662.765 290 662.5 290Z" fill="#3F3D56"/>
<path d="M662.5 305H580.5C580.235 305 579.98 304.895 579.793 304.707C579.605 304.52 579.5 304.265 579.5 304C579.5 303.735 579.605 303.48 579.793 303.293C579.98 303.105 580.235 303 580.5 303H662.5C662.765 303 663.02 303.105 663.207 303.293C663.395 303.48 663.5 303.735 663.5 304C663.5 304.265 663.395 304.52 663.207 304.707C663.02 304.895 662.765 305 662.5 305Z" fill="#3F3D56"/>
<path d="M662.5 320H580.5C580.235 320 579.98 319.895 579.793 319.707C579.605 319.52 579.5 319.265 579.5 319C579.5 318.735 579.605 318.48 579.793 318.293C579.98 318.105 580.235 318 580.5 318H662.5C662.765 318 663.02 318.105 663.207 318.293C663.395 318.48 663.5 318.735 663.5 319C663.5 319.265 663.395 319.52 663.207 319.707C663.02 319.895 662.765 320 662.5 320Z" fill="#3F3D56"/>
<path d="M815.686 211.676C830.177 211.676 841.924 199.928 841.924 185.437C841.924 170.946 830.177 159.198 815.686 159.198C801.194 159.198 789.447 170.946 789.447 185.437C789.447 199.928 801.194 211.676 815.686 211.676Z" fill="#FFB8B8"/>
<path d="M737.487 572.021L725.009 568.044L734.412 518.019L752.829 523.889L737.487 572.021Z" fill="#FFB8B8"/>
<path d="M716.666 561.452L741.298 569.303L736.469 584.455L697.25 571.955L697.431 571.389C698.041 569.473 699.023 567.697 700.32 566.161C701.617 564.625 703.204 563.359 704.99 562.436C706.776 561.514 708.727 560.952 710.73 560.783C712.733 560.614 714.75 560.841 716.666 561.452Z" fill="#2F2E41"/>
<path d="M828.277 571.762H815.179L808.946 521.244H828.277V571.762Z" fill="#FFB8B8"/>
<path d="M805.229 568.02H831.083V583.924H789.92V583.329C789.92 581.319 790.316 579.328 791.086 577.471C791.855 575.613 792.983 573.926 794.404 572.504C795.826 571.082 797.514 569.955 799.371 569.185C801.228 568.416 803.219 568.02 805.229 568.02Z" fill="#2F2E41"/>
<path d="M827.893 555.368L823.473 554.708C810.066 552.711 809.263 552.591 807.134 551.657C806.048 551.179 805.971 543.963 806.624 503.401C807.103 473.626 807.699 436.571 806.541 416.678C806.494 415.893 806.183 415.147 805.659 414.561C805.136 413.974 804.43 413.581 803.655 413.444C802.881 413.308 802.083 413.436 801.391 413.809C800.698 414.181 800.151 414.776 799.838 415.498C789.863 438.535 773.126 490.088 762.051 524.202C758.199 536.068 755.156 545.441 753.231 551.059C752.859 552.122 752.105 553.007 751.115 553.543C750.125 554.079 748.97 554.227 747.877 553.957C738.763 551.679 739.373 550.71 726.392 547.353C725.269 547.066 724.3 546.356 723.688 545.372C723.077 544.388 722.869 543.205 723.11 542.071C725.458 530.999 768.425 351.471 771.713 334.405C771.825 333.821 772.051 333.265 772.378 332.769C772.706 332.272 773.128 331.846 773.621 331.514C774.115 331.181 774.669 330.95 775.252 330.834C775.835 330.717 776.435 330.717 777.019 330.834C786.692 332.783 792.578 334.851 802.137 336.85C812.453 339.008 823.12 341.239 833.524 343.322C834.559 343.53 835.487 344.099 836.143 344.927C838.717 348.179 842.535 350.004 846.577 351.936C849.301 353.239 843.127 353.121 845.5 355C855.11 362.607 841.29 517.088 832.94 551.978C832.672 553.07 832.007 554.023 831.073 554.65C830.139 555.277 829.006 555.533 827.893 555.368V555.368Z" fill="#2F2E41"/>
<path d="M819.984 380.28C819.686 378.924 819.689 377.519 819.992 376.164C820.296 374.809 820.892 373.537 821.741 372.438C822.589 371.339 823.668 370.439 824.901 369.802C826.135 369.164 827.493 368.805 828.88 368.75L850.088 344.812L863.258 360.723L838.869 378.54C838.807 380.876 837.891 383.11 836.293 384.816C834.695 386.522 832.527 387.583 830.199 387.798C827.872 388.012 825.546 387.365 823.663 385.98C821.781 384.594 820.471 382.566 819.984 380.28V380.28Z" fill="#FFB8B8"/>
<path d="M826.869 208.396C825.338 201.896 833.082 187.91 831.55 181.41C830.512 177.008 820.161 180 817.746 176.177C815.33 172.353 811.284 169.256 806.761 169.205C801.563 169.147 796.449 173.003 791.525 171.336C786.546 169.651 784.955 162.833 787.156 158.06C789.357 153.287 794.098 150.246 798.783 147.862C806.761 143.804 816.049 140.84 824.588 143.525C829.749 145.149 834.065 148.666 838.241 152.106C842.048 155.241 845.919 158.448 848.58 162.601C853.794 170.736 853.479 181.696 849.024 190.27C844.568 198.843 836.45 205.135 827.505 208.787" fill="#2F2E41"/>
<path d="M762.441 359.663C765.273 354.932 769.573 332.766 774.875 295.56C778.485 270.161 781.63 244.354 783.191 231.171C783.312 230.104 783.702 229.085 784.325 228.211C784.947 227.336 785.782 226.633 786.75 226.169C787.763 225.681 788.77 225.218 789.77 224.782C802.693 219.161 815.79 217.298 828.694 219.246C841.579 221.225 853.665 226.732 863.613 235.157L863.731 235.268L863.761 235.426C863.817 235.719 869.237 264.924 858.136 284.655C847.188 304.124 847.06 355.682 847.06 356.2V356.863L846.423 356.681C829.391 351.814 763.598 360.329 762.935 360.416L761.91 360.549L762.441 359.663Z" fill="#87A2A8"/>
<path d="M832.332 363.619L865.789 319.009L848.536 282.04L849.789 238.194L863.933 235.581L864.083 235.656C870.954 239.674 876.28 245.88 879.211 253.28C882.353 261.136 888.87 287.861 893.784 308.898C895.067 314.313 894.939 319.966 893.412 325.316C891.884 330.667 889.009 335.535 885.061 339.456L844.018 380.499L832.332 363.619Z" fill="#87A2A8"/>
<path d="M691.878 275.211C692.678 274.076 693.717 273.13 694.922 272.44C696.127 271.75 697.468 271.333 698.852 271.217C700.236 271.102 701.628 271.291 702.93 271.772C704.233 272.253 705.414 273.013 706.391 274L738.368 273.508L735.507 293.962L705.902 287.977C704.136 289.508 701.869 290.338 699.531 290.31C697.194 290.281 694.948 289.397 693.22 287.823C691.491 286.249 690.4 284.096 690.152 281.772C689.905 279.447 690.519 277.113 691.878 275.211Z" fill="#FFB8B8"/>
<path d="M707.929 293.103L712.503 273.087L768.003 267.691L783.218 231.1L783.663 230.019L789.643 224.862L789.77 224.782C802.693 219.161 815.789 217.299 828.695 219.246L829.148 219.314L829.119 219.771C828.828 224.454 827.626 229.035 825.58 233.257C819.839 245.166 784.516 295.786 784.16 296.296L784.002 296.521L707.929 293.103Z" fill="#87A2A8"/>
<path d="M974 586H593C592.735 586 592.48 585.895 592.293 585.707C592.105 585.52 592 585.265 592 585C592 584.735 592.105 584.48 592.293 584.293C592.48 584.105 592.735 584 593 584H974C974.265 584 974.52 584.105 974.707 584.293C974.895 584.48 975 584.735 975 585C975 585.265 974.895 585.52 974.707 585.707C974.52 585.895 974.265 586 974 586Z" fill="#3F3D56"/>
<path d="M382 451H1C0.734784 451 0.480436 450.895 0.2929 450.707C0.105364 450.52 0 450.265 0 450C0 449.735 0.105364 449.48 0.2929 449.293C0.480436 449.105 0.734784 449 1 449H382C382.265 449 382.52 449.105 382.707 449.293C382.895 449.48 383 449.735 383 450C383 450.265 382.895 450.52 382.707 450.707C382.52 450.895 382.265 451 382 451Z" fill="#3F3D56"/>
</g>
<defs>
<clipPath id="clip0">
<rect width="983.864" height="586.046" fill="white"/>
</clipPath>
</defs>
</svg>
