<svg width="813" height="424" viewBox="0 0 813 424" fill="none" xmlns="http://www.w3.org/2000/svg">
<g clip-path="url(#clip0)">
<path d="M757.58 414.024C756.531 416.736 755.225 419.341 753.68 421.804C753.25 422.484 752.8 423.154 752.32 423.804H712.48C712.2 423.594 711.93 423.374 711.65 423.164C710.25 423.054 708.86 422.914 707.5 422.764C707.64 422.644 707.79 422.524 707.93 422.404C707.21 422.464 706.49 422.524 705.77 422.554C706.34 422.624 706.92 422.694 707.5 422.764C707.07 423.114 706.63 423.464 706.18 423.804H704.44L705.61 422.554C704.68 422.584 703.76 422.604 702.83 422.584L705.74 421.804L708.88 420.964C709 421.064 709.13 421.164 709.25 421.264C714.609 416.554 718.967 410.815 722.063 404.387C725.16 397.96 726.933 390.975 727.276 383.849C727.62 376.722 726.526 369.6 724.062 362.904C721.597 356.209 717.812 350.077 712.93 344.874C720.788 350.147 727.518 356.93 732.728 364.83C737.939 372.729 741.526 381.585 743.28 390.884C744.182 395.43 744.317 400.094 743.68 404.684C744.03 404.294 744.38 403.904 744.72 403.504C749.785 397.369 753.436 390.192 755.413 382.485C757.391 374.778 757.646 366.731 756.16 358.914C760.038 367.547 762.161 376.865 762.405 386.326C762.649 395.787 761.009 405.203 757.58 414.024Z" fill="#E6E6E6"/>
<path d="M558.842 79.5648C574.351 79.5648 586.924 66.9922 586.924 51.4831C586.924 35.974 574.351 23.4014 558.842 23.4014C543.333 23.4014 530.76 35.974 530.76 51.4831C530.76 66.9922 543.333 79.5648 558.842 79.5648Z" fill="#2F2E41"/>
<path d="M649.907 412.099L637.647 412.098L631.814 364.81L649.909 364.811L649.907 412.099Z" fill="#FFB8B8"/>
<path d="M628.89 408.595H652.534V423.482H614.003C614.003 421.527 614.388 419.591 615.136 417.785C615.884 415.979 616.981 414.338 618.363 412.955C619.745 411.573 621.387 410.477 623.193 409.728C624.999 408.98 626.935 408.595 628.89 408.595Z" fill="#2F2E41"/>
<path d="M524.845 410.494L513.008 407.302L519.685 360.126L537.155 364.837L524.845 410.494Z" fill="#FFB8B8"/>
<path d="M505.465 401.641L528.293 407.796L524.418 422.169L487.216 412.139C488.243 408.327 490.744 405.079 494.166 403.11C497.588 401.141 501.653 400.613 505.465 401.641Z" fill="#2F2E41"/>
<path d="M548.077 193.296L511.571 400.165L530.292 403.909L589.264 257.884L633.258 402.973L655.724 400.165C655.724 400.165 645.427 192.36 612.665 174.575L548.077 193.296Z" fill="#2F2E41"/>
<path d="M490.182 267.299C491.498 266.644 492.654 265.709 493.57 264.559C494.485 263.408 495.137 262.071 495.48 260.642C495.823 259.212 495.848 257.725 495.554 256.284C495.26 254.844 494.654 253.486 493.778 252.305L513.911 222.782L495.344 222.494L479.071 250.574C477.185 252.177 475.953 254.416 475.608 256.867C475.262 259.317 475.828 261.81 477.197 263.871C478.567 265.933 480.645 267.421 483.038 268.053C485.431 268.684 487.973 268.416 490.182 267.299Z" fill="#FFB8B8"/>
<path d="M623.102 230.793C624.418 230.138 625.575 229.202 626.49 228.052C627.405 226.902 628.058 225.565 628.4 224.135C628.743 222.706 628.768 221.218 628.474 219.778C628.18 218.338 627.574 216.979 626.698 215.799L646.831 186.275L628.264 185.987L611.991 214.067C610.105 215.67 608.873 217.909 608.528 220.36C608.182 222.811 608.748 225.303 610.118 227.365C611.487 229.427 613.565 230.914 615.958 231.546C618.352 232.178 620.893 231.91 623.102 230.793V230.793Z" fill="#FFB8B8"/>
<path d="M559.557 85.1247C573.121 85.1247 584.118 74.1284 584.118 60.5637C584.118 46.999 573.121 36.0027 559.557 36.0027C545.992 36.0027 534.996 46.999 534.996 60.5637C534.996 74.1284 545.992 85.1247 559.557 85.1247Z" fill="#FFB8B8"/>
<path d="M612.665 98.754C611.729 95.0098 595.816 95.9458 595.816 95.9458C595.816 95.9458 577.898 91.8264 578.067 92.3415C562.967 91.1792 544.548 96.8481 541.865 97.7078C536.376 99.222 525.89 103.854 518.327 107.261C517.274 107.735 516.452 108.606 516.038 109.684C515.624 110.762 515.652 111.959 516.116 113.016L539.185 165.682L542.461 199.848L618.281 176.447C599.56 168.958 613.601 102.498 612.665 98.754Z" fill="#84A882"/>
<path d="M606.113 99.69L612.336 98.127L646.363 165.214L648.235 203.593L626.706 186.744V171.767L604.241 142.749L606.113 99.69Z" fill="#84A882"/>
<path d="M524.208 104.838L517.002 108.041C516.627 108.208 516.298 108.464 516.046 108.788C515.793 109.111 515.624 109.492 515.553 109.896L501.274 191.424L487.233 232.61L505.955 241.971L527.484 190.488L534.972 153.045L524.208 104.838Z" fill="#84A882"/>
<path d="M533.8 48.9853C538.785 47.3484 544.043 49.9145 548.913 51.868C553.712 53.7932 558.84 55.1805 564.002 54.8772C569.164 54.574 574.385 52.3939 577.506 48.2709C580.627 44.1478 581.176 37.9686 578.087 33.8219C576.053 31.092 572.808 29.5345 569.558 28.5203C562.615 26.3533 554.845 26.2784 548.245 29.3356C541.646 32.3928 536.471 38.8513 535.927 46.1042" fill="#2F2E41"/>
<path d="M558.094 29.4214C556.419 18.0854 562.629 6.31544 571.104 2.09323C579.579 -2.12898 589.522 0.361743 597.156 6.64914C604.791 12.9365 610.357 22.5984 614.499 32.869C618.642 43.1396 621.51 54.1402 624.885 64.8517C627.883 74.3648 631.402 83.8836 637.095 91.1593C642.788 98.435 651.067 103.169 659 101.17C652.483 109.933 640.493 108.416 633.055 100.921C625.617 93.4255 621.75 81.7105 618.706 70.3071C615.662 58.9036 613.014 46.9719 607.126 37.5221C596.65 20.7106 576.094 15.6599 561.414 26.2906" fill="#2F2E41"/>
<path d="M813 421.804H0V423.804H813V421.804Z" fill="#3F3D56"/>
<path d="M426.54 229.912H71.7162C68.875 229.909 66.1511 228.779 64.1421 226.77C62.1331 224.761 61.0031 222.037 61 219.196V134.657C61.0031 131.816 62.1331 129.092 64.1421 127.083C66.1511 125.074 68.875 123.944 71.7162 123.941H426.54C429.381 123.944 432.105 125.074 434.114 127.083C436.123 129.092 437.253 131.816 437.256 134.657V219.196C437.253 222.037 436.123 224.761 434.114 226.77C432.105 228.779 429.381 229.909 426.54 229.912ZM71.7162 126.322C69.5065 126.325 67.388 127.204 65.8255 128.766C64.263 130.329 63.3841 132.447 63.3814 134.657V219.196C63.3841 221.405 64.263 223.524 65.8255 225.086C67.388 226.649 69.5065 227.528 71.7162 227.53H426.54C428.75 227.528 430.868 226.649 432.431 225.086C433.993 223.524 434.872 221.405 434.875 219.196V134.657C434.872 132.447 433.993 130.329 432.431 128.766C430.868 127.204 428.75 126.325 426.54 126.322H71.7162Z" fill="#3F3D56"/>
<path d="M409.275 212.052H88.9811C88.8244 212.052 88.6692 212.022 88.5244 211.962C88.3795 211.902 88.2478 211.815 88.1369 211.704C88.026 211.593 87.938 211.462 87.8779 211.317C87.8179 211.173 87.787 211.017 87.787 210.861C87.787 210.704 87.8179 210.549 87.8779 210.404C87.938 210.26 88.026 210.128 88.1369 210.018C88.2478 209.907 88.3795 209.819 88.5244 209.76C88.6692 209.7 88.8244 209.67 88.9811 209.67H409.275C409.432 209.67 409.587 209.7 409.732 209.76C409.877 209.819 410.008 209.907 410.119 210.018C410.23 210.128 410.318 210.26 410.378 210.404C410.438 210.549 410.469 210.704 410.469 210.861C410.469 211.017 410.438 211.173 410.378 211.317C410.318 211.462 410.23 211.593 410.119 211.704C410.008 211.815 409.877 211.902 409.732 211.962C409.587 212.022 409.432 212.052 409.275 212.052Z" fill="#E6E6E6"/>
<path d="M122.916 172.759H96.7206C96.4054 172.76 96.1034 172.886 95.8809 173.109C95.6583 173.332 95.5333 173.635 95.5333 173.95C95.5333 174.265 95.6583 174.567 95.8809 174.79C96.1034 175.014 96.4054 175.14 96.7206 175.14H108.627V196.195C108.606 197.721 109.168 199.197 110.198 200.324C111.228 201.45 112.649 202.141 114.17 202.256C114.245 202.26 114.322 202.261 114.399 202.261C115.335 202.244 116.253 201.998 117.073 201.547C117.893 201.095 118.591 200.45 119.105 199.668C119.294 199.415 119.375 199.098 119.33 198.786C119.285 198.474 119.118 198.192 118.866 198.003C118.614 197.814 118.296 197.733 117.984 197.777C117.672 197.821 117.39 197.988 117.201 198.24C116.897 198.745 116.467 199.161 115.953 199.448C115.439 199.736 114.859 199.883 114.27 199.877C113.361 199.793 112.517 199.365 111.911 198.681C111.305 197.997 110.983 197.108 111.009 196.195V175.14H122.916C123.072 175.141 123.228 175.11 123.372 175.051C123.517 174.991 123.649 174.903 123.76 174.793C123.871 174.682 123.959 174.551 124.019 174.406C124.079 174.261 124.11 174.106 124.11 173.95C124.11 173.793 124.079 173.638 124.019 173.493C123.959 173.349 123.871 173.217 123.76 173.107C123.649 172.996 123.517 172.908 123.372 172.849C123.228 172.789 123.072 172.759 122.916 172.759L122.916 172.759Z" fill="#87A2A8"/>
<path d="M212.217 276.349C217.478 276.349 221.742 272.084 221.742 266.823C221.742 261.562 217.478 257.298 212.217 257.298C206.956 257.298 202.691 261.562 202.691 266.823C202.691 272.084 206.956 276.349 212.217 276.349Z" fill="#E6E6E6"/>
<path d="M249.128 276.349C254.389 276.349 258.654 272.084 258.654 266.823C258.654 261.562 254.389 257.298 249.128 257.298C243.867 257.298 239.603 261.562 239.603 266.823C239.603 272.084 243.867 276.349 249.128 276.349Z" fill="#87A2A8"/>
<path d="M286.039 276.349C291.3 276.349 295.565 272.084 295.565 266.823C295.565 261.562 291.3 257.298 286.039 257.298C280.778 257.298 276.514 261.562 276.514 266.823C276.514 272.084 280.778 276.349 286.039 276.349Z" fill="#E6E6E6"/>
<path d="M128.475 201.373C128.864 201.359 129.232 201.195 129.503 200.916C129.773 200.636 129.924 200.262 129.924 199.873C129.924 199.484 129.773 199.11 129.503 198.83C129.232 198.55 128.864 198.386 128.475 198.373C128.086 198.386 127.718 198.55 127.448 198.83C127.177 199.11 127.026 199.484 127.026 199.873C127.026 200.262 127.177 200.636 127.448 200.916C127.718 201.195 128.086 201.359 128.475 201.373Z" fill="#3F3D56"/>
<path d="M138.001 201.373C138.39 201.359 138.758 201.195 139.028 200.916C139.299 200.636 139.45 200.262 139.45 199.873C139.45 199.484 139.299 199.11 139.028 198.83C138.758 198.55 138.39 198.386 138.001 198.373C137.612 198.386 137.243 198.55 136.973 198.83C136.703 199.11 136.552 199.484 136.552 199.873C136.552 200.262 136.703 200.636 136.973 200.916C137.243 201.195 137.612 201.359 138.001 201.373Z" fill="#3F3D56"/>
<path d="M147.526 201.373C147.915 201.359 148.283 201.195 148.554 200.916C148.824 200.636 148.975 200.262 148.975 199.873C148.975 199.484 148.824 199.11 148.554 198.83C148.283 198.55 147.915 198.386 147.526 198.373C147.137 198.386 146.769 198.55 146.499 198.83C146.228 199.11 146.077 199.484 146.077 199.873C146.077 200.262 146.228 200.636 146.499 200.916C146.769 201.195 147.137 201.359 147.526 201.373Z" fill="#3F3D56"/>
</g>
<defs>
<clipPath id="clip0">
<rect width="813" height="423.804" fill="white"/>
</clipPath>
</defs>
</svg>
