<svg width="602" height="630" viewBox="0 0 602 630" fill="none" xmlns="http://www.w3.org/2000/svg">
<g clip-path="url(#clip0)">
<path d="M419.633 76.8521L418.48 78.0627L497.566 153.357L498.719 152.147L419.633 76.8521Z" fill="#E6E6E6"/>
<path d="M498.845 143.982L497.175 144.083L497.679 152.309L489.437 152.21L489.419 153.882L499.457 154.001L498.845 143.982Z" fill="#E6E6E6"/>
<path d="M427.781 76.326L427.763 77.9981L419.522 77.8991L420.026 86.1251L418.355 86.2261L417.745 76.2061L427.781 76.326Z" fill="#E6E6E6"/>
<path d="M458.6 124.298C463.677 124.298 467.792 120.182 467.792 115.105C467.792 110.028 463.677 105.912 458.6 105.912C453.523 105.912 449.407 110.028 449.407 115.105C449.407 120.182 453.523 124.298 458.6 124.298Z" fill="#E6E6E6"/>
<path d="M183.638 76.8522L104.553 152.147L105.705 153.357L184.791 78.0628L183.638 76.8522Z" fill="#E6E6E6"/>
<path d="M103.815 154.001L113.853 153.882L113.834 152.21L105.593 152.309L106.097 144.083L104.427 143.982L103.815 154.001Z" fill="#E6E6E6"/>
<path d="M185.527 76.2061L184.916 86.2261L183.246 86.1251L183.749 77.8991L175.508 77.9981L175.49 76.326L185.527 76.2061Z" fill="#E6E6E6"/>
<path d="M144.672 124.298C149.749 124.298 153.865 120.182 153.865 115.105C153.865 110.028 149.749 105.912 144.672 105.912C139.595 105.912 135.479 110.028 135.479 115.105C135.479 120.182 139.595 124.298 144.672 124.298Z" fill="#E6E6E6"/>
<path d="M370.164 190.543H231.436C229.442 190.541 227.53 189.747 226.12 188.337C224.71 186.927 223.917 185.016 223.914 183.021V7.52142C223.917 5.52731 224.71 3.61554 226.12 2.20549C227.53 0.79544 229.442 0.00227088 231.436 0H370.164C372.158 0.00227088 374.07 0.79544 375.48 2.20549C376.89 3.61554 377.683 5.52731 377.686 7.52142V183.021C377.683 185.016 376.89 186.927 375.48 188.337C374.07 189.747 372.158 190.541 370.164 190.543ZM231.436 1.67143C229.885 1.67317 228.398 2.29007 227.301 3.38678C226.204 4.48349 225.587 5.97044 225.586 7.52142V183.021C225.587 184.572 226.204 186.059 227.301 187.156C228.398 188.253 229.885 188.87 231.436 188.871H370.164C371.715 188.87 373.202 188.253 374.299 187.156C375.396 186.059 376.013 184.572 376.014 183.021V7.52142C376.013 5.97044 375.396 4.48349 374.299 3.38678C373.202 2.29007 371.715 1.67317 370.164 1.67143H231.436Z" fill="#3F3D56"/>
<path d="M289.26 84.3584H258.723C257.726 84.3573 256.77 83.9607 256.065 83.2557C255.36 82.5507 254.963 81.5948 254.962 80.5977V44.562C254.963 43.5649 255.36 42.609 256.065 41.904C256.77 41.1989 257.726 40.8024 258.723 40.8013H289.26C290.257 40.8024 291.213 41.1989 291.918 41.904C292.623 42.609 293.019 43.5649 293.021 44.562V80.5977C293.019 81.5947 292.623 82.5507 291.918 83.2557C291.213 83.9607 290.257 84.3573 289.26 84.3584Z" fill="#84A882"/>
<path d="M348.596 101.073H318.059C317.061 101.072 316.106 100.675 315.401 99.97C314.696 99.265 314.299 98.3091 314.298 97.312V61.2763C314.299 60.2793 314.696 59.3234 315.401 58.6183C316.106 57.9133 317.061 57.5167 318.059 57.5156H348.596C349.593 57.5167 350.549 57.9133 351.254 58.6183C351.959 59.3234 352.355 60.2793 352.356 61.2763V97.312C352.355 98.3091 351.959 99.265 351.254 99.97C350.549 100.675 349.593 101.072 348.596 101.073Z" fill="#CCCCCC"/>
<path d="M300.96 152.051H270.423C269.426 152.05 268.47 151.654 267.765 150.949C267.06 150.244 266.663 149.288 266.662 148.291V112.255C266.663 111.258 267.06 110.302 267.765 109.597C268.47 108.892 269.426 108.495 270.423 108.494H300.96C301.957 108.495 302.913 108.892 303.618 109.597C304.323 110.302 304.719 111.258 304.721 112.255V148.291C304.719 149.288 304.323 150.244 303.618 150.949C302.913 151.654 301.957 152.05 300.96 152.051Z" fill="#F5DAD5"/>
<path d="M594.079 371H455.35C453.356 370.998 451.444 370.204 450.034 368.794C448.624 367.384 447.831 365.473 447.829 363.478V187.978C447.831 185.984 448.624 184.073 450.034 182.663C451.444 181.252 453.356 180.459 455.35 180.457H594.079C596.073 180.459 597.984 181.252 599.395 182.663C600.805 184.073 601.598 185.984 601.6 187.978V363.478C601.598 365.473 600.805 367.384 599.395 368.794C597.984 370.204 596.073 370.998 594.079 371ZM455.35 182.128C453.799 182.13 452.312 182.747 451.215 183.844C450.119 184.941 449.502 186.427 449.5 187.978V363.478C449.502 365.029 450.119 366.516 451.215 367.613C452.312 368.71 453.799 369.327 455.35 369.328H594.079C595.63 369.327 597.116 368.71 598.213 367.613C599.31 366.516 599.927 365.029 599.929 363.478V187.978C599.927 186.427 599.31 184.941 598.213 183.844C597.116 182.747 595.63 182.13 594.079 182.128H455.35Z" fill="#3F3D56"/>
<path d="M548.532 219.318H500.896C500.01 219.318 499.16 218.966 498.533 218.339C497.906 217.712 497.554 216.862 497.554 215.975C497.554 215.088 497.906 214.238 498.533 213.611C499.16 212.984 500.01 212.632 500.896 212.632H548.532C549.419 212.632 550.269 212.984 550.896 213.611C551.523 214.238 551.875 215.088 551.875 215.975C551.875 216.862 551.523 217.712 550.896 218.339C550.269 218.966 549.419 219.318 548.532 219.318Z" fill="#84A882"/>
<path d="M571.932 251.075H477.496C477.057 251.076 476.622 250.99 476.215 250.822C475.809 250.654 475.44 250.408 475.129 250.098C474.818 249.787 474.571 249.419 474.403 249.013C474.234 248.607 474.148 248.172 474.148 247.732C474.148 247.293 474.234 246.857 474.403 246.451C474.571 246.045 474.818 245.677 475.129 245.366C475.44 245.056 475.809 244.81 476.215 244.642C476.622 244.474 477.057 244.388 477.496 244.389H571.932C572.372 244.388 572.807 244.474 573.213 244.642C573.619 244.81 573.989 245.056 574.3 245.366C574.611 245.677 574.857 246.045 575.026 246.451C575.194 246.857 575.281 247.293 575.281 247.732C575.281 248.172 575.194 248.607 575.026 249.013C574.857 249.419 574.611 249.787 574.3 250.098C573.989 250.408 573.619 250.654 573.213 250.822C572.807 250.99 572.372 251.076 571.932 251.075Z" fill="#CCCCCC"/>
<path d="M571.932 268.625H477.496C477.057 268.626 476.622 268.54 476.215 268.372C475.809 268.204 475.44 267.958 475.129 267.648C474.818 267.337 474.571 266.969 474.403 266.563C474.234 266.157 474.148 265.722 474.148 265.282C474.148 264.843 474.234 264.407 474.403 264.001C474.571 263.596 474.818 263.227 475.129 262.916C475.44 262.606 475.809 262.36 476.215 262.192C476.622 262.024 477.057 261.938 477.496 261.939H571.932C572.372 261.938 572.807 262.024 573.213 262.192C573.619 262.36 573.989 262.606 574.3 262.916C574.611 263.227 574.857 263.596 575.026 264.001C575.194 264.407 575.281 264.843 575.281 265.282C575.281 265.722 575.194 266.157 575.026 266.563C574.857 266.969 574.611 267.337 574.3 267.648C573.989 267.958 573.619 268.204 573.213 268.372C572.807 268.54 572.372 268.626 571.932 268.625Z" fill="#CCCCCC"/>
<path d="M571.932 286.175H477.496C477.057 286.176 476.622 286.09 476.215 285.922C475.809 285.755 475.44 285.508 475.129 285.198C474.818 284.887 474.571 284.519 474.403 284.113C474.234 283.707 474.148 283.272 474.148 282.832C474.148 282.393 474.234 281.957 474.403 281.552C474.571 281.146 474.818 280.777 475.129 280.466C475.44 280.156 475.809 279.91 476.215 279.742C476.622 279.574 477.057 279.489 477.496 279.489H571.932C572.372 279.489 572.807 279.574 573.213 279.742C573.619 279.91 573.989 280.156 574.3 280.466C574.611 280.777 574.857 281.146 575.026 281.552C575.194 281.957 575.281 282.393 575.281 282.832C575.281 283.272 575.194 283.707 575.026 284.113C574.857 284.519 574.611 284.887 574.3 285.198C573.989 285.508 573.619 285.755 573.213 285.922C572.807 286.09 572.372 286.176 571.932 286.175Z" fill="#CCCCCC"/>
<path d="M571.932 303.725H477.496C477.057 303.726 476.622 303.64 476.215 303.472C475.809 303.305 475.44 303.058 475.129 302.748C474.818 302.438 474.571 302.069 474.403 301.663C474.234 301.257 474.148 300.822 474.148 300.382C474.148 299.943 474.234 299.508 474.403 299.102C474.571 298.696 474.818 298.327 475.129 298.016C475.44 297.706 475.809 297.46 476.215 297.292C476.622 297.124 477.057 297.039 477.496 297.039H571.932C572.372 297.039 572.807 297.124 573.213 297.292C573.619 297.46 573.989 297.706 574.3 298.016C574.611 298.327 574.857 298.696 575.026 299.102C575.194 299.508 575.281 299.943 575.281 300.382C575.281 300.822 575.194 301.257 575.026 301.663C574.857 302.069 574.611 302.438 574.3 302.748C573.989 303.058 573.619 303.305 573.213 303.472C572.807 303.64 572.372 303.726 571.932 303.725Z" fill="#CCCCCC"/>
<path d="M571.932 321.275H477.496C477.057 321.276 476.622 321.19 476.215 321.022C475.809 320.855 475.44 320.608 475.129 320.298C474.818 319.988 474.571 319.619 474.403 319.213C474.234 318.807 474.148 318.372 474.148 317.932C474.148 317.493 474.234 317.058 474.403 316.652C474.571 316.246 474.818 315.877 475.129 315.566C475.44 315.256 475.809 315.01 476.215 314.842C476.622 314.675 477.057 314.589 477.496 314.589H571.932C572.372 314.589 572.807 314.675 573.213 314.842C573.619 315.01 573.989 315.256 574.3 315.566C574.611 315.877 574.857 316.246 575.026 316.652C575.194 317.058 575.281 317.493 575.281 317.932C575.281 318.372 575.194 318.807 575.026 319.213C574.857 319.619 574.611 319.988 574.3 320.298C573.989 320.608 573.619 320.855 573.213 321.022C572.807 321.19 572.372 321.276 571.932 321.275Z" fill="#CCCCCC"/>
<path d="M571.932 338.825H477.496C477.057 338.826 476.622 338.74 476.215 338.572C475.809 338.404 475.44 338.158 475.129 337.848C474.818 337.537 474.571 337.169 474.403 336.763C474.234 336.357 474.148 335.922 474.148 335.482C474.148 335.043 474.234 334.607 474.403 334.201C474.571 333.795 474.818 333.427 475.129 333.116C475.44 332.806 475.809 332.56 476.215 332.392C476.622 332.224 477.057 332.138 477.496 332.139H571.932C572.372 332.138 572.807 332.224 573.213 332.392C573.619 332.56 573.989 332.806 574.3 333.116C574.611 333.427 574.857 333.795 575.026 334.201C575.194 334.607 575.281 335.043 575.281 335.482C575.281 335.922 575.194 336.357 575.026 336.763C574.857 337.169 574.611 337.537 574.3 337.848C573.989 338.158 573.619 338.404 573.213 338.572C572.807 338.74 572.372 338.826 571.932 338.825Z" fill="#CCCCCC"/>
<path d="M146.25 371H7.52142C5.52731 370.998 3.61553 370.204 2.20547 368.794C0.795424 367.384 0.00226824 365.473 0 363.478V187.978C0.00226824 185.984 0.795424 184.073 2.20547 182.663C3.61553 181.252 5.52731 180.459 7.52142 180.457H146.25C148.244 180.459 150.156 181.252 151.566 182.663C152.976 184.073 153.769 185.984 153.771 187.978V363.478C153.769 365.473 152.976 367.384 151.566 368.794C150.156 370.204 148.244 370.998 146.25 371ZM7.52142 182.128C5.97044 182.13 4.48349 182.747 3.38678 183.844C2.29007 184.941 1.67316 186.427 1.67142 187.978V363.478C1.67316 365.029 2.29007 366.516 3.38678 367.613C4.48349 368.71 5.97044 369.327 7.52142 369.328H146.25C147.801 369.327 149.288 368.71 150.385 367.613C151.481 366.516 152.098 365.029 152.1 363.478V187.978C152.098 186.427 151.481 184.941 150.385 183.844C149.288 182.747 147.801 182.13 146.25 182.128H7.52142Z" fill="#3F3D56"/>
<path d="M124.248 221.893H82.4626C81.576 221.893 80.7258 221.541 80.0988 220.914C79.4719 220.287 79.1198 219.436 79.1198 218.55C79.1198 217.663 79.4719 216.813 80.0988 216.186C80.7258 215.559 81.576 215.207 82.4626 215.207H124.248C125.135 215.207 125.985 215.559 126.612 216.186C127.239 216.813 127.591 217.663 127.591 218.55C127.591 219.436 127.239 220.287 126.612 220.914C125.985 221.541 125.135 221.893 124.248 221.893Z" fill="#3F3D56"/>
<path d="M124.248 239.443H82.4626C81.576 239.443 80.7258 239.091 80.0988 238.464C79.4719 237.837 79.1198 236.987 79.1198 236.1C79.1198 235.213 79.4719 234.363 80.0988 233.736C80.7258 233.109 81.576 232.757 82.4626 232.757H124.248C125.135 232.757 125.985 233.109 126.612 233.736C127.239 234.363 127.591 235.213 127.591 236.1C127.591 236.987 127.239 237.837 126.612 238.464C125.985 239.091 125.135 239.443 124.248 239.443Z" fill="#3F3D56"/>
<path d="M61.0222 249.436H30.4852C29.4882 249.435 28.5322 249.038 27.8272 248.333C27.1222 247.628 26.7256 246.672 26.7245 245.675V209.639C26.7256 208.642 27.1222 207.686 27.8272 206.981C28.5322 206.276 29.4882 205.88 30.4852 205.879H61.0222C62.0193 205.88 62.9752 206.276 63.6802 206.981C64.3853 207.686 64.7818 208.642 64.7829 209.639V245.675C64.7818 246.672 64.3853 247.628 63.6802 248.333C62.9752 249.038 62.0193 249.435 61.0222 249.436Z" fill="#84A882"/>
<path d="M123.959 275.379H29.5231C29.0836 275.379 28.6483 275.293 28.242 275.126C27.8358 274.958 27.4666 274.712 27.1556 274.402C26.8446 274.091 26.5978 273.722 26.4294 273.316C26.2611 272.91 26.1744 272.475 26.1744 272.036C26.1744 271.596 26.2611 271.161 26.4294 270.755C26.5978 270.349 26.8446 269.98 27.1556 269.67C27.4666 269.359 27.8358 269.113 28.242 268.946C28.6483 268.778 29.0836 268.692 29.5231 268.693H123.959C124.398 268.692 124.834 268.778 125.24 268.946C125.646 269.113 126.015 269.359 126.326 269.67C126.637 269.98 126.884 270.349 127.052 270.755C127.221 271.161 127.307 271.596 127.307 272.036C127.307 272.475 127.221 272.91 127.052 273.316C126.884 273.722 126.637 274.091 126.326 274.402C126.015 274.712 125.646 274.958 125.24 275.126C124.834 275.293 124.398 275.379 123.959 275.379Z" fill="#CCCCCC"/>
<path d="M123.959 292.928H29.5231C29.0836 292.929 28.6483 292.843 28.242 292.676C27.8358 292.508 27.4666 292.262 27.1556 291.951C26.8446 291.641 26.5978 291.272 26.4294 290.866C26.2611 290.46 26.1744 290.025 26.1744 289.586C26.1744 289.146 26.2611 288.711 26.4294 288.305C26.5978 287.899 26.8446 287.53 27.1556 287.22C27.4666 286.909 27.8358 286.663 28.242 286.495C28.6483 286.328 29.0836 286.242 29.5231 286.243H123.959C124.398 286.242 124.834 286.328 125.24 286.495C125.646 286.663 126.015 286.909 126.326 287.22C126.637 287.53 126.884 287.899 127.052 288.305C127.221 288.711 127.307 289.146 127.307 289.586C127.307 290.025 127.221 290.46 127.052 290.866C126.884 291.272 126.637 291.641 126.326 291.951C126.015 292.262 125.646 292.508 125.24 292.676C124.834 292.843 124.398 292.929 123.959 292.928Z" fill="#CCCCCC"/>
<path d="M123.959 310.478H29.5231C29.0836 310.479 28.6483 310.393 28.242 310.226C27.8358 310.058 27.4666 309.812 27.1556 309.501C26.8446 309.191 26.5978 308.822 26.4294 308.416C26.2611 308.01 26.1744 307.575 26.1744 307.136C26.1744 306.696 26.2611 306.261 26.4294 305.855C26.5978 305.449 26.8446 305.08 27.1556 304.77C27.4666 304.459 27.8358 304.213 28.242 304.046C28.6483 303.878 29.0836 303.792 29.5231 303.793H123.959C124.398 303.792 124.834 303.878 125.24 304.046C125.646 304.213 126.015 304.459 126.326 304.77C126.637 305.08 126.884 305.449 127.052 305.855C127.221 306.261 127.307 306.696 127.307 307.136C127.307 307.575 127.221 308.01 127.052 308.416C126.884 308.822 126.637 309.191 126.326 309.501C126.015 309.812 125.646 310.058 125.24 310.226C124.834 310.393 124.398 310.479 123.959 310.478Z" fill="#CCCCCC"/>
<path d="M123.959 328.028H29.5231C29.0836 328.029 28.6483 327.943 28.242 327.776C27.8358 327.608 27.4666 327.362 27.1556 327.051C26.8446 326.741 26.5978 326.372 26.4294 325.966C26.2611 325.56 26.1744 325.125 26.1744 324.686C26.1744 324.246 26.2611 323.811 26.4294 323.405C26.5978 322.999 26.8446 322.63 27.1556 322.32C27.4666 322.009 27.8358 321.763 28.242 321.596C28.6483 321.428 29.0836 321.342 29.5231 321.343H123.959C124.398 321.342 124.834 321.428 125.24 321.596C125.646 321.763 126.015 322.009 126.326 322.32C126.637 322.63 126.884 322.999 127.052 323.405C127.221 323.811 127.307 324.246 127.307 324.686C127.307 325.125 127.221 325.56 127.052 325.966C126.884 326.372 126.637 326.741 126.326 327.051C126.015 327.362 125.646 327.608 125.24 327.776C124.834 327.943 124.398 328.029 123.959 328.028Z" fill="#CCCCCC"/>
<path d="M123.959 345.579H29.5231C29.0836 345.579 28.6483 345.493 28.242 345.326C27.8358 345.158 27.4666 344.912 27.1556 344.602C26.8446 344.291 26.5978 343.922 26.4294 343.516C26.2611 343.11 26.1744 342.675 26.1744 342.236C26.1744 341.796 26.2611 341.361 26.4294 340.955C26.5978 340.549 26.8446 340.18 27.1556 339.87C27.4666 339.559 27.8358 339.313 28.242 339.146C28.6483 338.978 29.0836 338.892 29.5231 338.893H123.959C124.398 338.892 124.834 338.978 125.24 339.146C125.646 339.313 126.015 339.559 126.326 339.87C126.637 340.18 126.884 340.549 127.052 340.955C127.221 341.361 127.307 341.796 127.307 342.236C127.307 342.675 127.221 343.11 127.052 343.516C126.884 343.922 126.637 344.291 126.326 344.602C126.015 344.912 125.646 345.158 125.24 345.326C124.834 345.493 124.398 345.579 123.959 345.579Z" fill="#CCCCCC"/>
<path d="M198.695 472.719V436.683C198.696 435.686 199.093 434.73 199.798 434.025C200.503 433.32 201.459 432.923 202.456 432.922H232.993C233.99 432.923 234.946 433.32 235.651 434.025C236.356 434.73 236.753 435.686 236.754 436.683V472.719C236.753 473.716 236.356 474.672 235.651 475.377C234.946 476.082 233.99 476.478 232.993 476.479H202.456C201.459 476.478 200.503 476.082 199.798 475.377C199.093 474.672 198.696 473.716 198.695 472.719Z" fill="#E6E6E6"/>
<path d="M209.695 460.719V424.683C209.696 423.686 210.093 422.73 210.798 422.025C211.503 421.32 212.459 420.923 213.456 420.922H243.993C244.99 420.923 245.946 421.32 246.651 422.025C247.356 422.73 247.753 423.686 247.754 424.683V460.719C247.753 461.716 247.356 462.672 246.651 463.377C245.946 464.082 244.99 464.478 243.993 464.479H213.456C212.459 464.478 211.503 464.082 210.798 463.377C210.093 462.672 209.696 461.716 209.695 460.719Z" fill="#84A882"/>
<path d="M346.584 449.188C345.435 448.524 344.446 447.617 343.685 446.529C342.925 445.441 342.413 444.2 342.184 442.893C341.955 441.585 342.016 440.244 342.362 438.963C342.708 437.681 343.331 436.492 344.186 435.477L334.72 366.289L354.438 367.257L357.534 434.742C359.143 436.293 360.128 438.379 360.301 440.607C360.475 442.834 359.825 445.048 358.476 446.829C357.126 448.61 355.17 449.833 352.978 450.268C350.787 450.703 348.512 450.319 346.584 449.188V449.188Z" fill="#A0616A"/>
<path d="M357.144 368.179C356.74 368.655 356.222 369.021 355.639 369.243L337.919 376.006C337.029 376.346 336.043 376.331 335.163 375.966C334.284 375.601 333.578 374.912 333.19 374.041L317.494 338.766C315.987 335.494 315.73 331.783 316.773 328.335C317.544 325.874 318.964 323.666 320.884 321.944C322.805 320.223 325.154 319.051 327.684 318.553C329.631 318.152 331.641 318.181 333.574 318.636C335.892 319.152 338.044 320.239 339.836 321.796C341.628 323.354 343.003 325.334 343.838 327.557L357.794 364.447C358.028 365.071 358.092 365.745 357.978 366.402C357.863 367.058 357.576 367.671 357.144 368.179Z" fill="#CCCCCC"/>
<path d="M264.807 618.06H252.547L248.102 570.549L264.809 570.773L264.807 618.06Z" fill="#A0616A"/>
<path d="M243.79 614.557H267.434V629.444H228.903C228.903 627.489 229.288 625.553 230.037 623.747C230.785 621.94 231.881 620.299 233.264 618.917C234.646 617.535 236.287 616.438 238.093 615.69C239.899 614.942 241.835 614.557 243.79 614.557Z" fill="#2F2E41"/>
<path d="M321.807 618.06H309.547L303.715 570.772L321.809 570.773L321.807 618.06Z" fill="#A0616A"/>
<path d="M300.79 614.557H324.434V629.444H285.903C285.903 627.489 286.288 625.553 287.037 623.747C287.785 621.94 288.881 620.299 290.264 618.917C291.646 617.535 293.287 616.438 295.093 615.69C296.899 614.942 298.835 614.557 300.79 614.557Z" fill="#2F2E41"/>
<path d="M323.349 601.236L304.094 599.81C302.999 599.728 301.972 599.248 301.205 598.462C300.439 597.675 299.986 596.636 299.931 595.539L295.638 506.809C295.597 505.957 295.246 505.15 294.652 504.539C294.058 503.927 293.261 503.554 292.411 503.489C291.561 503.423 290.716 503.67 290.035 504.183C289.354 504.696 288.884 505.44 288.713 506.276L270.802 593.683C270.58 594.758 269.974 595.716 269.096 596.375C268.218 597.035 267.13 597.351 266.035 597.265L248.629 595.872C248.033 595.825 247.452 595.658 246.92 595.384C246.389 595.109 245.917 594.73 245.534 594.271C245.15 593.812 244.862 593.281 244.686 592.708C244.511 592.136 244.451 591.535 244.51 590.94L260.658 429.463C260.721 428.832 260.917 428.221 261.233 427.671C261.548 427.121 261.977 426.644 262.49 426.271C263.003 425.898 263.589 425.638 264.21 425.507C264.831 425.377 265.472 425.379 266.092 425.514L327.498 438.863C328.515 439.086 329.423 439.654 330.069 440.471C330.715 441.288 331.058 442.303 331.041 443.344L328.181 596.832C328.158 598.009 327.676 599.13 326.837 599.956C325.998 600.781 324.869 601.245 323.692 601.248C323.578 601.248 323.464 601.243 323.349 601.236Z" fill="#2F2E41"/>
<path d="M306.503 294.449C320.068 294.449 331.064 283.452 331.064 269.888C331.064 256.323 320.068 245.327 306.503 245.327C292.939 245.327 281.942 256.323 281.942 269.888C281.942 283.452 292.939 294.449 306.503 294.449Z" fill="#A0616A"/>
<path d="M268.396 441.915C266.034 439.797 264.159 437.193 262.9 434.282C261.641 431.37 261.027 428.22 261.102 425.049C261.102 389.748 291.657 310.881 292.615 308.42C292.709 307.827 293.515 307.571 297.745 304.714C301.977 301.855 308.08 301.415 315.884 303.408C316.678 303.611 317.4 304.028 317.973 304.613C318.546 305.198 318.948 305.929 319.134 306.727L320.586 308.824C320.712 309.356 320.962 309.851 321.314 310.269C321.666 310.687 322.112 311.016 322.615 311.231C328.908 313.882 348.913 326.109 342.096 372.122C335.764 414.865 333.195 440.003 332.384 448.827C332.288 449.874 331.829 450.855 331.085 451.598C330.341 452.34 329.359 452.799 328.312 452.893C325.227 453.169 319.93 453.536 313.623 453.536C299.002 453.536 278.947 451.564 268.396 441.915Z" fill="#CCCCCC"/>
<path d="M239.047 428.837C238.463 427.646 238.147 426.341 238.122 425.014C238.097 423.687 238.363 422.371 238.902 421.158C239.44 419.945 240.238 418.865 241.239 417.994C242.241 417.122 243.421 416.481 244.696 416.116L275.389 353.39L291.223 365.181L256.189 422.943C256.661 425.127 256.316 427.408 255.219 429.355C254.122 431.301 252.349 432.778 250.236 433.504C248.123 434.231 245.817 434.157 243.755 433.297C241.693 432.437 240.018 430.85 239.047 428.837L239.047 428.837Z" fill="#A0616A"/>
<path d="M292.956 367.454C292.356 367.624 291.722 367.64 291.113 367.499L272.631 363.241C271.703 363.027 270.892 362.466 270.365 361.672C269.838 360.879 269.636 359.913 269.799 358.975L276.422 320.937C276.994 317.38 278.848 314.156 281.635 311.873C283.647 310.259 286.057 309.217 288.611 308.858C291.164 308.498 293.768 308.835 296.147 309.831C297.986 310.583 299.639 311.726 300.991 313.182C302.628 314.902 303.81 317.004 304.43 319.296C305.05 321.588 305.088 323.998 304.542 326.309L295.575 364.717C295.422 365.366 295.099 365.962 294.639 366.443C294.178 366.924 293.597 367.273 292.956 367.454Z" fill="#CCCCCC"/>
<path d="M300.753 292.079C299.558 290.859 298.675 289.369 298.181 287.734C297.686 286.1 297.595 284.37 297.914 282.692C298.77 278.213 299.273 275.282 299.368 274.216C299.695 270.568 296.007 267.615 292.358 267.145C292.217 267.127 292.099 267.114 292 267.107C292.093 267.198 292.193 267.291 292.28 267.374C292.973 268.024 293.836 268.835 293.631 269.671C293.507 270.175 293.047 270.532 292.224 270.762C286.518 272.359 282.123 270.893 278.394 266.146C277.345 264.797 276.624 263.223 276.288 261.548C274.952 254.993 278.512 249.405 281.734 245.872C284.391 242.959 288.698 239.423 294.128 239.12C298.352 238.884 303.374 241.315 304.877 245.694C305.586 244.644 306.53 243.772 307.634 243.15C308.738 242.528 309.973 242.171 311.239 242.108C314.122 242.046 316.96 242.835 319.397 244.377C331.306 251.199 336.424 267.45 330.574 279.865C326.893 287.674 318.919 293.488 309.764 295.037C309.191 295.134 308.61 295.184 308.029 295.184C306.67 295.182 305.325 294.906 304.075 294.372C302.825 293.839 301.695 293.059 300.753 292.079Z" fill="#2F2E41"/>
<path d="M185.579 630H380.579C380.844 630 381.098 629.895 381.286 629.707C381.473 629.52 381.579 629.265 381.579 629C381.579 628.735 381.473 628.48 381.286 628.293C381.098 628.105 380.844 628 380.579 628H185.579C185.314 628 185.059 628.105 184.872 628.293C184.684 628.48 184.579 628.735 184.579 629C184.579 629.265 184.684 629.52 184.872 629.707C185.059 629.895 185.314 630 185.579 630Z" fill="#3F3D56"/>
</g>
<defs>
<clipPath id="clip0">
<rect width="601.6" height="630" fill="white"/>
</clipPath>
</defs>
</svg>
